<?xml version="1.0" encoding="utf-8"?>
<!-- Generator: Adobe Illustrator 24.0.1, SVG Export Plug-In . SVG Version: 6.00 Build 0)  -->
<svg version="1.1" id="Layer_1" xmlns="http://www.w3.org/2000/svg" xmlns:xlink="http://www.w3.org/1999/xlink" x="0px" y="0px"
	 viewBox="0 0 264 280" style="enable-background:new 0 0 264 280;" xml:space="preserve">
<style type="text/css">
	.st0{fill-rule:evenodd;clip-rule:evenodd;fill:#40E4BF;}
	.st1{filter:url(#Adobe_OpacityMaskFilter);}
	.st2{fill-rule:evenodd;clip-rule:evenodd;fill:#FFFFFF;}
	.st3{mask:url(#mask-2_1_);}
	.st4{filter:url(#Adobe_OpacityMaskFilter_1_);}
	.st5{mask:url(#mask-4_1_);}
	.st6{fill-rule:evenodd;clip-rule:evenodd;fill:#D0C6AC;}
	.st7{filter:url(#Adobe_OpacityMaskFilter_2_);}
	.st8{mask:url(#mask-6_1_);}
	.st9{fill-rule:evenodd;clip-rule:evenodd;fill:#EDB98A;}
	.st10{filter:url(#Adobe_OpacityMaskFilter_3_);}
	.st11{mask:url(#mask-6_2_);fill-rule:evenodd;clip-rule:evenodd;fill-opacity:0.1;}
	.st12{fill-rule:evenodd;clip-rule:evenodd;fill:#E6E6E6;}
	.st13{filter:url(#Adobe_OpacityMaskFilter_4_);}
	.st14{mask:url(#react-mask-437_1_);}
	.st15{fill-rule:evenodd;clip-rule:evenodd;fill:#3C4F5C;}
	.st16{filter:url(#Adobe_OpacityMaskFilter_5_);}
	.st17{opacity:0.6;mask:url(#react-mask-437_2_);}
	.st18{fill-rule:evenodd;clip-rule:evenodd;fill-opacity:0.16;}
	.st19{fill-rule:evenodd;clip-rule:evenodd;fill-opacity:0.7;}
	.st20{filter:url(#Adobe_OpacityMaskFilter_6_);}
	.st21{mask:url(#react-mask-359_1_);fill-rule:evenodd;clip-rule:evenodd;fill-opacity:0.7;}
	.st22{filter:url(#Adobe_OpacityMaskFilter_7_);}
	.st23{mask:url(#react-mask-360_1_);fill-rule:evenodd;clip-rule:evenodd;fill-opacity:0.7;}
	.st24{fill-rule:evenodd;clip-rule:evenodd;fill-opacity:0.6;}
	.st25{filter:url(#Adobe_OpacityMaskFilter_8_);}
	.st26{mask:url(#react-mask-433_1_);}
	.st27{fill-rule:evenodd;clip-rule:evenodd;fill:#28354B;}
	.st28{filter:url(#Adobe_OpacityMaskFilter_9_);}
	.st29{mask:url(#react-mask-432_1_);}
	.st30{fill-rule:evenodd;clip-rule:evenodd;fill:#2C1B18;}
</style>
<desc>Created with getavataaars.com</desc>
<g id="Circle" transform="translate(12.000000, 40.000000)">
	<g id="Circle-Background">
		<circle id="path-1_1_" class="st0" cx="120" cy="120" r="120"/>
	</g>
	<defs>
		<filter id="Adobe_OpacityMaskFilter" filterUnits="userSpaceOnUse" x="0" y="0" width="240" height="240">
			<feColorMatrix  type="matrix" values="1 0 0 0 0  0 1 0 0 0  0 0 1 0 0  0 0 0 1 0"/>
		</filter>
	</defs>
	<mask maskUnits="userSpaceOnUse" x="0" y="0" width="240" height="240" id="mask-2_1_">
		<g class="st1">
			<circle id="path-1_2_" class="st2" cx="120" cy="120" r="120"/>
		</g>
	</mask>
	<g id="Color_x2F_Palette_x2F_Blue-01" class="st3">
		<rect id="_xD83D__xDD8D_Color" class="st0" width="240" height="240"/>
	</g>
</g>
<g id="Mask">
</g>
<defs>
	<filter id="Adobe_OpacityMaskFilter_1_" filterUnits="userSpaceOnUse" x="-1" y="0" width="265" height="280">
		<feColorMatrix  type="matrix" values="1 0 0 0 0  0 1 0 0 0  0 0 1 0 0  0 0 0 1 0"/>
	</filter>
</defs>
<mask maskUnits="userSpaceOnUse" x="-1" y="0" width="265" height="280" id="mask-4_1_">
	<g class="st4">
		<path id="path-3_1_" class="st2" d="M12,160c0,66.3,53.7,120,120,120s120-53.7,120-120h12V0H0v160H12z"/>
	</g>
</mask>
<g id="Avataaar" class="st5">
	<g id="Body" transform="translate(32.000000, 36.000000)">
		<g>
			<path id="path-5_1_" class="st6" d="M124,144.6V163h4l0,0c39.8,0,72,32.2,72,72v9H0v-9c0-39.8,32.2-72,72-72l0,0h4v-18.4
				c-17.2-8.2-29.6-24.9-31.7-44.7C38.5,99.1,34,94.1,34,88V74c0-5.9,4.3-10.9,10-11.8V56l0,0c0-30.9,25.1-56,56-56l0,0l0,0
				c30.9,0,56,25.1,56,56v6.2c5.7,1,10,5.9,10,11.8v14c0,6.1-4.5,11.1-10.3,11.9C153.6,119.7,141.2,136.4,124,144.6z"/>
		</g>
		<defs>
			<filter id="Adobe_OpacityMaskFilter_2_" filterUnits="userSpaceOnUse" x="-32" y="0" width="264" height="244">
				<feColorMatrix  type="matrix" values="1 0 0 0 0  0 1 0 0 0  0 0 1 0 0  0 0 0 1 0"/>
			</filter>
		</defs>
		<mask maskUnits="userSpaceOnUse" x="-32" y="0" width="264" height="244" id="mask-6_1_">
			<g class="st7">
				<path id="path-5_2_" class="st2" d="M124,144.6V163h4l0,0c39.8,0,72,32.2,72,72v9H0v-9c0-39.8,32.2-72,72-72l0,0h4v-18.4
					c-17.2-8.2-29.6-24.9-31.7-44.7C38.5,99.1,34,94.1,34,88V74c0-5.9,4.3-10.9,10-11.8V56l0,0c0-30.9,25.1-56,56-56l0,0l0,0
					c30.9,0,56,25.1,56,56v6.2c5.7,1,10,5.9,10,11.8v14c0,6.1-4.5,11.1-10.3,11.9C153.6,119.7,141.2,136.4,124,144.6z"/>
			</g>
		</mask>
		<g id="Skin_x2F__xD83D__xDC76__xD83C__xDFFD_-03-Brown" class="st8">
			<g id="Color" transform="translate(-32.000000, 0.000000)">
				<rect class="st9" width="264" height="244"/>
			</g>
		</g>
		<defs>
			<filter id="Adobe_OpacityMaskFilter_3_" filterUnits="userSpaceOnUse" x="44" y="79" width="112" height="79">
				<feColorMatrix  type="matrix" values="1 0 0 0 0  0 1 0 0 0  0 0 1 0 0  0 0 0 1 0"/>
			</filter>
		</defs>
		<mask maskUnits="userSpaceOnUse" x="44" y="79" width="112" height="79" id="mask-6_2_">
			<g class="st10">
				<path id="path-5_3_" class="st2" d="M124,144.6V163h4l0,0c39.8,0,72,32.2,72,72v9H0v-9c0-39.8,32.2-72,72-72l0,0h4v-18.4
					c-17.2-8.2-29.6-24.9-31.7-44.7C38.5,99.1,34,94.1,34,88V74c0-5.9,4.3-10.9,10-11.8V56l0,0c0-30.9,25.1-56,56-56l0,0l0,0
					c30.9,0,56,25.1,56,56v6.2c5.7,1,10,5.9,10,11.8v14c0,6.1-4.5,11.1-10.3,11.9C153.6,119.7,141.2,136.4,124,144.6z"/>
			</g>
		</mask>
		<path id="Neck-Shadow" class="st11" d="M156,79v23c0,30.9-25.1,56-56,56s-56-25.1-56-56V79v15c0,30.9,25.1,56,56,56s56-25.1,56-56
			V79z"/>
	</g>
	<g id="Clothing_x2F_Shirt-Crew-Neck" transform="translate(0.000000, 170.000000)">
		<g id="Clothes">
			<path id="react-path-436_1_" class="st12" d="M166,29.3c37,3,66,34,66,71.8v8.9H32v-8.9C32,63,61.6,31.8,99,29.2
				c0,0.4,0,0.7,0,1.1c0,11.9,15,21.5,33.5,21.5S166,42.2,166,30.3C166,30,166,29.6,166,29.3z"/>
		</g>
		<defs>
			<filter id="Adobe_OpacityMaskFilter_4_" filterUnits="userSpaceOnUse" x="0" y="0" width="264" height="110">
				<feColorMatrix  type="matrix" values="1 0 0 0 0  0 1 0 0 0  0 0 1 0 0  0 0 0 1 0"/>
			</filter>
		</defs>
		<mask maskUnits="userSpaceOnUse" x="0" y="0" width="264" height="110" id="react-mask-437_1_">
			<g class="st13">
				<path id="react-path-436_2_" class="st2" d="M166,29.3c37,3,66,34,66,71.8v8.9H32v-8.9C32,63,61.6,31.8,99,29.2
					c0,0.4,0,0.7,0,1.1c0,11.9,15,21.5,33.5,21.5S166,42.2,166,30.3C166,30,166,29.6,166,29.3z"/>
			</g>
		</mask>
		<g id="Color_x2F_Palette_x2F_Gray-01" class="st14">
			<rect id="_xD83D__xDD8D_Color_1_" class="st15" width="264" height="110"/>
		</g>
		<defs>
			<filter id="Adobe_OpacityMaskFilter_5_" filterUnits="userSpaceOnUse" x="92.9" y="4.9" width="79.3" height="53.8">
				<feColorMatrix  type="matrix" values="1 0 0 0 0  0 1 0 0 0  0 0 1 0 0  0 0 0 1 0"/>
			</filter>
		</defs>
		<mask maskUnits="userSpaceOnUse" x="92.9" y="4.9" width="79.3" height="53.8" id="react-mask-437_2_">
			<g class="st16">
				<path id="react-path-436_3_" class="st2" d="M166,29.3c37,3,66,34,66,71.8v8.9H32v-8.9C32,63,61.6,31.8,99,29.2
					c0,0.4,0,0.7,0,1.1c0,11.9,15,21.5,33.5,21.5S166,42.2,166,30.3C166,30,166,29.6,166,29.3z"/>
			</g>
		</mask>
		<g id="Shadowy" class="st17">
			<g id="Hola-_xD83D__xDC4B__xD83C__xDFFC_" transform="translate(92.000000, 4.000000)">
				<ellipse class="st18" cx="40.5" cy="27.8" rx="39.6" ry="26.9"/>
			</g>
		</g>
	</g>
	<g id="Face" transform="translate(76.000000, 82.000000)">
		<g id="Mouth_x2F_Serious" transform="translate(2.000000, 52.000000)">
			<path id="Why-so-serious_x3F_" class="st19" d="M45,18h18c1.7,0,3,1.3,3,3l0,0c0,1.7-1.3,3-3,3H45c-1.7,0-3-1.3-3-3l0,0
				C42,19.3,43.3,18,45,18z"/>
		</g>
		<g id="Nose_x2F_Default" transform="translate(28.000000, 40.000000)">
			<path id="Nose" class="st18" d="M16,8c0,4.4,5.4,8,12,8l0,0c6.6,0,12-3.6,12-8"/>
		</g>
		<g id="Eyes_x2F_Squint-_xD83D__xDE0A_" transform="translate(0.000000, 8.000000)">
			<g id="Eye" transform="translate(16.000000, 13.000000)">
				<g id="The-white-stuff">
					<path id="react-path-357_1_" class="st2" d="M14,14c9.6,0,14,4.5,14-2.5S21.7,0,14,0S0,4.6,0,11.6S4.4,14,14,14z"/>
				</g>
				<defs>
					<filter id="Adobe_OpacityMaskFilter_6_" filterUnits="userSpaceOnUse" x="8" y="4" width="12" height="12">
						<feColorMatrix  type="matrix" values="1 0 0 0 0  0 1 0 0 0  0 0 1 0 0  0 0 0 1 0"/>
					</filter>
				</defs>
				<mask maskUnits="userSpaceOnUse" x="8" y="4" width="12" height="12" id="react-mask-359_1_">
					<g class="st20">
						<path id="react-path-357_2_" class="st2" d="M14,14c9.6,0,14,4.5,14-2.5S21.7,0,14,0S0,4.6,0,11.6S4.4,14,14,14z"/>
					</g>
				</mask>
				<circle class="st21" cx="14" cy="10" r="6"/>
			</g>
			<g id="Eye_1_" transform="translate(68.000000, 13.000000)">
				<g id="Eyeball-Mask">
					<path id="react-path-358_1_" class="st2" d="M14,14c9.6,0,14,4.5,14-2.5S21.7,0,14,0S0,4.6,0,11.6S4.4,14,14,14z"/>
				</g>
				<defs>
					<filter id="Adobe_OpacityMaskFilter_7_" filterUnits="userSpaceOnUse" x="8" y="4" width="12" height="12">
						<feColorMatrix  type="matrix" values="1 0 0 0 0  0 1 0 0 0  0 0 1 0 0  0 0 0 1 0"/>
					</filter>
				</defs>
				<mask maskUnits="userSpaceOnUse" x="8" y="4" width="12" height="12" id="react-mask-360_1_">
					<g class="st22">
						<path id="react-path-358_2_" class="st2" d="M14,14c9.6,0,14,4.5,14-2.5S21.7,0,14,0S0,4.6,0,11.6S4.4,14,14,14z"/>
					</g>
				</mask>
				<circle class="st23" cx="14" cy="10" r="6"/>
			</g>
		</g>
		<g id="Eyebrow_x2F_Natural_x2F_Flat-Natural">
			<path id="Fill-10" class="st24" d="M38.7,11.1c-5,0.4-9.9,0.1-14.9-0.1c-3.8-0.2-7.7-0.7-11.4,1c-0.7,0.3-4.5,2.3-4.4,3.3
				c0.1,0.9,3.9,2.2,4.6,2.4c3.7,1.3,7.2,0.9,11,0.7c4.6-0.3,9.2-0.1,13.9-0.2c3.1-0.1,7.9-0.6,9.5-4.4c0.5-1.1,0.1-3.4-0.4-4.7
				c-0.2-0.5-0.7-0.7-1.1-0.4C43.9,9.8,41.1,10.9,38.7,11.1"/>
			<path id="Fill-10_1_" class="st24" d="M73.3,11.1c5,0.4,9.9,0.1,14.9-0.1c3.8-0.2,7.7-0.7,11.4,1c0.7,0.3,4.5,2.3,4.4,3.3
				c-0.1,0.9-3.9,2.2-4.6,2.4c-3.7,1.3-7.2,0.9-11,0.7c-4.6-0.3-9.2-0.1-13.9-0.2c-3.1-0.1-7.9-0.6-9.5-4.4
				c-0.5-1.1-0.1-3.4,0.4-4.7c0.2-0.5,0.7-0.7,1.1-0.4C68.1,9.8,70.9,10.9,73.3,11.1"/>
		</g>
	</g>
	<g id="Top">
		<g id="Mask_1_">
		</g>
		<defs>
			<filter id="Adobe_OpacityMaskFilter_8_" filterUnits="userSpaceOnUse" x="-1" y="0" width="264" height="280">
				<feColorMatrix  type="matrix" values="1 0 0 0 0  0 1 0 0 0  0 0 1 0 0  0 0 0 1 0"/>
			</filter>
		</defs>
		<mask maskUnits="userSpaceOnUse" x="-1" y="0" width="264" height="280" id="react-mask-433_1_">
			<g class="st25">
				<rect id="react-path-435_1_" class="st2" width="264" height="280"/>
			</g>
		</mask>
		<g id="Top_x2F_Short-Hair_x2F_Short-Round" class="st26">
			<g transform="translate(-1.000000, 0.000000)">
				<g id="Short-Hair">
					<path id="react-path-434_1_" class="st27" d="M167.3,35c-20.2-11.7-40.2-9.8-55.3-6S88,43.7,80.4,59.6
						c-3.8,7.9-6,17.1-6.3,25.8c-0.1,3.4,0.3,6.9,1.2,10.2c0.3,1.2,2.2,5.4,2.7,2c0.2-1.1-0.4-2.7-0.5-3.9c-0.1-1.6,0-3.2,0.1-4.7
						c0.2-2.9,0.7-5.8,1.7-8.6c1.3-4,3-8.3,5.6-11.7c6.4-8.3,17.5-8.8,26.3-13.4c-0.8,1.4-3.7,3.7-2.7,5.3c0.7,1.1,3.4,0.8,4.6,0.7
						c3.3-0.1,6.7-0.7,10-1.1c5.2-0.7,10.1-2.3,15-4.1c4-1.5,8.6-2.9,11.6-6.1c4.9,5,11.1,9.8,17.4,13c5.6,2.9,14.7,4.3,18.1,10.2
						c4.1,6.9,2.2,15.4,3.4,22.9c0.5,2.8,1.5,2.8,2.1,0.2c1-4.3,1.5-8.8,1.2-13.3C191.2,73.1,187.5,46.7,167.3,35z"/>
				</g>
				<defs>
					<filter id="Adobe_OpacityMaskFilter_9_" filterUnits="userSpaceOnUse" x="0" y="0" width="264" height="280">
						<feColorMatrix  type="matrix" values="1 0 0 0 0  0 1 0 0 0  0 0 1 0 0  0 0 0 1 0"/>
					</filter>
				</defs>
				<mask maskUnits="userSpaceOnUse" x="0" y="0" width="264" height="280" id="react-mask-432_1_">
					<g class="st28">
						<path id="react-path-434_2_" class="st2" d="M167.3,35c-20.2-11.7-40.2-9.8-55.3-6S88,43.7,80.4,59.6
							c-3.8,7.9-6,17.1-6.3,25.8c-0.1,3.4,0.3,6.9,1.2,10.2c0.3,1.2,2.2,5.4,2.7,2c0.2-1.1-0.4-2.7-0.5-3.9c-0.1-1.6,0-3.2,0.1-4.7
							c0.2-2.9,0.7-5.8,1.7-8.6c1.3-4,3-8.3,5.6-11.7c6.4-8.3,17.5-8.8,26.3-13.4c-0.8,1.4-3.7,3.7-2.7,5.3c0.7,1.1,3.4,0.8,4.6,0.7
							c3.3-0.1,6.7-0.7,10-1.1c5.2-0.7,10.1-2.3,15-4.1c4-1.5,8.6-2.9,11.6-6.1c4.9,5,11.1,9.8,17.4,13c5.6,2.9,14.7,4.3,18.1,10.2
							c4.1,6.9,2.2,15.4,3.4,22.9c0.5,2.8,1.5,2.8,2.1,0.2c1-4.3,1.5-8.8,1.2-13.3C191.2,73.1,187.5,46.7,167.3,35z"/>
					</g>
				</mask>
				<g id="Skin_x2F__xD83D__xDC76__xD83C__xDFFD_-03-Brown_1_" class="st29">
					<g id="Color_1_" transform="translate(0.000000, 0.000000) ">
						<rect class="st30" width="264" height="280"/>
					</g>
				</g>
			</g>
		</g>
	</g>
</g>
</svg>
