<?xml version="1.0" encoding="utf-8"?>
<!-- Generator: Adobe Illustrator 24.0.1, SVG Export Plug-In . SVG Version: 6.00 Build 0)  -->
<svg version="1.1" id="Layer_1" xmlns="http://www.w3.org/2000/svg" xmlns:xlink="http://www.w3.org/1999/xlink" x="0px" y="0px"
	 viewBox="0 0 264 280" style="enable-background:new 0 0 264 280;" xml:space="preserve">
<style type="text/css">
	.st0{fill-rule:evenodd;clip-rule:evenodd;fill:#40E4BF;}
	.st1{filter:url(#Adobe_OpacityMaskFilter);}
	.st2{fill-rule:evenodd;clip-rule:evenodd;fill:#FFFFFF;}
	.st3{mask:url(#mask-2_1_);}
	.st4{filter:url(#Adobe_OpacityMaskFilter_1_);}
	.st5{mask:url(#mask-4_1_);}
	.st6{fill-rule:evenodd;clip-rule:evenodd;fill:#D0C6AC;}
	.st7{filter:url(#Adobe_OpacityMaskFilter_2_);}
	.st8{mask:url(#mask-6_1_);}
	.st9{fill-rule:evenodd;clip-rule:evenodd;fill:#614335;}
	.st10{filter:url(#Adobe_OpacityMaskFilter_3_);}
	.st11{mask:url(#mask-6_2_);fill-rule:evenodd;clip-rule:evenodd;fill-opacity:0.1;}
	.st12{fill-rule:evenodd;clip-rule:evenodd;fill:#E6E6E6;}
	.st13{filter:url(#Adobe_OpacityMaskFilter_4_);}
	.st14{mask:url(#react-mask-511_1_);}
	.st15{fill-rule:evenodd;clip-rule:evenodd;fill:#262E33;}
	.st16{filter:url(#Adobe_OpacityMaskFilter_5_);}
	.st17{mask:url(#react-mask-511_2_);}
	.st18{fill-rule:evenodd;clip-rule:evenodd;fill-opacity:0.7;}
	.st19{filter:url(#Adobe_OpacityMaskFilter_6_);}
	.st20{mask:url(#react-mask-509_1_);fill-rule:evenodd;clip-rule:evenodd;fill:#FFFFFF;}
	.st21{filter:url(#Adobe_OpacityMaskFilter_7_);}
	.st22{mask:url(#react-mask-509_2_);}
	.st23{fill-rule:evenodd;clip-rule:evenodd;fill:#FF4F6D;}
	.st24{fill-rule:evenodd;clip-rule:evenodd;fill-opacity:0.16;}
	.st25{fill-rule:evenodd;clip-rule:evenodd;fill-opacity:0.6;}
	.st26{filter:url(#Adobe_OpacityMaskFilter_8_);}
	.st27{mask:url(#react-mask-523_1_);}
	.st28{fill-rule:evenodd;clip-rule:evenodd;fill:#28354B;}
	.st29{filter:url(#Adobe_OpacityMaskFilter_9_);}
	.st30{mask:url(#react-mask-524_1_);}
	.st31{fill-rule:evenodd;clip-rule:evenodd;fill:#2C1B18;}
</style>
<desc>Created with getavataaars.com</desc>
<g id="Circle" transform="translate(12.000000, 40.000000)">
	<g id="Circle-Background">
		<circle id="path-1_1_" class="st0" cx="120" cy="120" r="120"/>
	</g>
	<defs>
		<filter id="Adobe_OpacityMaskFilter" filterUnits="userSpaceOnUse" x="0" y="0" width="240" height="240">
			<feColorMatrix  type="matrix" values="1 0 0 0 0  0 1 0 0 0  0 0 1 0 0  0 0 0 1 0"/>
		</filter>
	</defs>
	<mask maskUnits="userSpaceOnUse" x="0" y="0" width="240" height="240" id="mask-2_1_">
		<g class="st1">
			<circle id="path-1_2_" class="st2" cx="120" cy="120" r="120"/>
		</g>
	</mask>
	<g id="Color_x2F_Palette_x2F_Blue-01" class="st3">
		<rect id="_xD83D__xDD8D_Color" class="st0" width="240" height="240"/>
	</g>
</g>
<g id="Mask">
</g>
<defs>
	<filter id="Adobe_OpacityMaskFilter_1_" filterUnits="userSpaceOnUse" x="0" y="34" width="338" height="280">
		<feColorMatrix  type="matrix" values="1 0 0 0 0  0 1 0 0 0  0 0 1 0 0  0 0 0 1 0"/>
	</filter>
</defs>
<mask maskUnits="userSpaceOnUse" x="0" y="34" width="338" height="280" id="mask-4_1_">
	<g class="st4">
		<path id="path-3_1_" class="st2" d="M12,160c0,66.3,53.7,120,120,120s120-53.7,120-120h12V0H0v160H12z"/>
	</g>
</mask>
<g id="Avataaar" class="st5">
	<g id="Body" transform="translate(32.000000, 36.000000)">
		<g>
			<path id="path-5_1_" class="st6" d="M124,144.6V163h4l0,0c39.8,0,72,32.2,72,72v9H0v-9c0-39.8,32.2-72,72-72l0,0h4v-18.4
				c-17.2-8.2-29.6-24.9-31.7-44.7C38.5,99.1,34,94.1,34,88V74c0-5.9,4.3-10.9,10-11.8V56l0,0c0-30.9,25.1-56,56-56l0,0l0,0
				c30.9,0,56,25.1,56,56v6.2c5.7,1,10,5.9,10,11.8v14c0,6.1-4.5,11.1-10.3,11.9C153.6,119.7,141.2,136.4,124,144.6z"/>
		</g>
		<defs>
			<filter id="Adobe_OpacityMaskFilter_2_" filterUnits="userSpaceOnUse" x="-32" y="0" width="264" height="244">
				<feColorMatrix  type="matrix" values="1 0 0 0 0  0 1 0 0 0  0 0 1 0 0  0 0 0 1 0"/>
			</filter>
		</defs>
		<mask maskUnits="userSpaceOnUse" x="-32" y="0" width="264" height="244" id="mask-6_1_">
			<g class="st7">
				<path id="path-5_2_" class="st2" d="M124,144.6V163h4l0,0c39.8,0,72,32.2,72,72v9H0v-9c0-39.8,32.2-72,72-72l0,0h4v-18.4
					c-17.2-8.2-29.6-24.9-31.7-44.7C38.5,99.1,34,94.1,34,88V74c0-5.9,4.3-10.9,10-11.8V56l0,0c0-30.9,25.1-56,56-56l0,0l0,0
					c30.9,0,56,25.1,56,56v6.2c5.7,1,10,5.9,10,11.8v14c0,6.1-4.5,11.1-10.3,11.9C153.6,119.7,141.2,136.4,124,144.6z"/>
			</g>
		</mask>
		<g id="Skin_x2F__xD83D__xDC76__xD83C__xDFFD_-03-Brown" class="st8">
			<g id="Color" transform="translate(-32.000000, 0.000000)">
				<rect class="st9" width="264" height="244"/>
			</g>
		</g>
		<defs>
			<filter id="Adobe_OpacityMaskFilter_3_" filterUnits="userSpaceOnUse" x="44" y="79" width="112" height="79">
				<feColorMatrix  type="matrix" values="1 0 0 0 0  0 1 0 0 0  0 0 1 0 0  0 0 0 1 0"/>
			</filter>
		</defs>
		<mask maskUnits="userSpaceOnUse" x="44" y="79" width="112" height="79" id="mask-6_2_">
			<g class="st10">
				<path id="path-5_3_" class="st2" d="M124,144.6V163h4l0,0c39.8,0,72,32.2,72,72v9H0v-9c0-39.8,32.2-72,72-72l0,0h4v-18.4
					c-17.2-8.2-29.6-24.9-31.7-44.7C38.5,99.1,34,94.1,34,88V74c0-5.9,4.3-10.9,10-11.8V56l0,0c0-30.9,25.1-56,56-56l0,0l0,0
					c30.9,0,56,25.1,56,56v6.2c5.7,1,10,5.9,10,11.8v14c0,6.1-4.5,11.1-10.3,11.9C153.6,119.7,141.2,136.4,124,144.6z"/>
			</g>
		</mask>
		<path id="Neck-Shadow" class="st11" d="M156,79v23c0,30.9-25.1,56-56,56s-56-25.1-56-56V79v15c0,30.9,25.1,56,56,56s56-25.1,56-56
			V79z"/>
	</g>
	<g id="Clothing_x2F_Graphic-Shirt" transform="translate(0.000000, 170.000000)">
		<g id="Clothes">
			<path id="react-path-510_1_" class="st12" d="M165.6,29.3c37.1,2.9,66.4,33.9,66.4,71.8v8.9H32v-8.9c0-38.2,29.8-69.5,67.4-71.9
				c-0.3,1.1-0.4,2.2-0.4,3.3C99,44.4,114,54,132.5,54S166,44.4,166,32.5C166,31.4,165.9,30.3,165.6,29.3L165.6,29.3z"/>
		</g>
		<defs>
			<filter id="Adobe_OpacityMaskFilter_4_" filterUnits="userSpaceOnUse" x="0" y="0" width="264" height="110">
				<feColorMatrix  type="matrix" values="1 0 0 0 0  0 1 0 0 0  0 0 1 0 0  0 0 0 1 0"/>
			</filter>
		</defs>
		<mask maskUnits="userSpaceOnUse" x="0" y="0" width="264" height="110" id="react-mask-511_1_">
			<g class="st13">
				<path id="react-path-510_2_" class="st2" d="M165.6,29.3c37.1,2.9,66.4,33.9,66.4,71.8v8.9H32v-8.9c0-38.2,29.8-69.5,67.4-71.9
					c-0.3,1.1-0.4,2.2-0.4,3.3C99,44.4,114,54,132.5,54S166,44.4,166,32.5C166,31.4,165.9,30.3,165.6,29.3L165.6,29.3z"/>
			</g>
		</mask>
		<g id="Color_x2F_Palette_x2F_Gray-01" class="st14">
			<rect id="_xD83D__xDD8D_Color_1_" class="st15" width="264" height="110"/>
		</g>
		<defs>
			<filter id="Adobe_OpacityMaskFilter_5_" filterUnits="userSpaceOnUse" x="106" y="60" width="49" height="41">
				<feColorMatrix  type="matrix" values="1 0 0 0 0  0 1 0 0 0  0 0 1 0 0  0 0 0 1 0"/>
			</filter>
		</defs>
		<mask maskUnits="userSpaceOnUse" x="106" y="60" width="49" height="41" id="react-mask-511_2_">
			<g class="st16">
				<path id="react-path-510_3_" class="st2" d="M165.6,29.3c37.1,2.9,66.4,33.9,66.4,71.8v8.9H32v-8.9c0-38.2,29.8-69.5,67.4-71.9
					c-0.3,1.1-0.4,2.2-0.4,3.3C99,44.4,114,54,132.5,54S166,44.4,166,32.5C166,31.4,165.9,30.3,165.6,29.3L165.6,29.3z"/>
			</g>
		</mask>
		<g id="Clothing_x2F_Graphic_x2F_Diamond" class="st17">
			<g id="Diamond" transform="translate(77.000000, 58.000000)">
				<g transform="translate(29.000000, 2.000000)">
					<path id="Fill-21" class="st2" d="M34.8,27.7c-2.4,2.7-4.9,5.2-7.3,7.8c1-3.6,1.7-7.6,3.2-11c0.4-1,0.1-1.1,0.9-1.5
						c0.6-0.3,2.1,0,2.8,0.1c1.6,0,3.2,0.2,4.7,0C37.6,24.6,36.2,26.2,34.8,27.7 M19.5,31.8c-2.7-3.3-5.4-6.6-8.7-9.3
						c1.3,0.1,2.7,0,4,0.2c1.9,0.4,1.8,1,2.8,3c1.5,2.9,2.9,5.8,4,8.8C21,33.6,20.2,32.7,19.5,31.8 M10.4,19.3c1-1.6,1.1-3,2.9-3.8
						c2.1-0.9,5.3-0.7,7.5-0.9c-1.4,1.5-3,3.1-3.6,5.1c-0.9-1.7-2-3.2-3.7-4.2c-0.2-0.1,1.2,4.6,1.3,4.9c-1.7-0.1-3.5-0.4-5.2-0.1
						C9.9,20,10.2,19.6,10.4,19.3 M26.8,14.3c1.6,0,3.2,0.2,4.7,0.4c-1.3,1.7-1.6,3.6-2.1,5.6c-0.5-2.3-2.2-4.4-3.7-6
						C26.1,14.3,26.5,14.3,26.8,14.3 M23.3,15.3c0.2-0.2,4.5,5.1,5.1,5.6c-3.3,0-6.6-0.2-9.9-0.3C20.4,19.1,21.5,16.9,23.3,15.3
						 M26,32.4c-0.4,1.3-0.8,2.7-1.2,4c-1.6-4.7-3.9-9.2-6-13.7c3.3,0.1,6.7,0.2,10,0.3C28,26.2,26.9,29.3,26,32.4 M33.2,15
						c1.3,1.1,3.1,3.4,3.7,4.2c0.1,0.1,0.1,0.2,0.2,0.2c0.2,0.3,1,1.3,1.3,1.6c-2.2-0.2-4.5-0.1-6.8-0.2c0.5-2.1,1.1-4,0.6-6.1
						C32.5,14.8,32.9,14.9,33.2,15 M40.9,20.6c-2.2-2.7-4.4-7.3-7.9-8.1c-3.5-0.8-7.5-0.5-11.1-0.2c-3.1,0.2-8.1-0.2-10.8,1.6
						c-1.4,0.9-2.4,3-2.9,4.6c-0.4,1.4,0.3,2.3-1.2,2.3c-0.1,0,2.5,3.7,2.8,4c2.3,2.1,4.4,4.2,6.5,6.6c2.8,3.4,5.4,8.3,9.1,9.7
						c-0.7-0.3,2.8-3,3.2-3.4c2.1-2.3,4.2-4.6,6.4-6.8c1.9-2.1,4.1-4,5.9-6.2C42.4,23,42.4,22.4,40.9,20.6"/>
					<path id="Fill-23" class="st2" d="M7,12c0,0-0.9-2-0.8-1.9c-0.5-0.7-1-1.2-1.7-1.7C3.7,7.8,0.1,7.3,0,7C1.5,9.7,4.2,11.1,7,12"
						/>
					<path id="Fill-25" class="st2" d="M22.4,7.2c0.2,0.7,0.4,1.3,0.8,1.8C23.2,9.1,24,4.8,24,4.5C24,3.8,23.6,0,22.8,0
						C21.5,0,22.1,6.5,22.4,7.2"/>
					<path id="Fill-27" class="st2" d="M49,5c-3,0-9.7,5.9-8.9,9c0,0,0.4-0.4,0.4-0.3c0,0,0,0,0.1,0c1.3-1,2.7-2,4-3.2
						c0.9-0.8,2-1.6,2.8-2.5C47.4,7.8,49.3,5,49,5"/>
				</g>
			</g>
		</g>
	</g>
	<g id="Face" transform="translate(76.000000, 82.000000)">
		<g id="Mouth_x2F_Smile" transform="translate(2.000000, 52.000000)">
			<g id="Mouth">
				<path id="react-path-508_1_" class="st18" d="M35.1,15.1C36.2,24.6,44.2,32,54,32c9.8,0,17.9-7.4,18.9-17c0.1-0.8-0.8-2-1.8-2
					c-14.9,0-26.3,0-34,0C36,13,35,14.2,35.1,15.1z"/>
			</g>
			<defs>
				<filter id="Adobe_OpacityMaskFilter_6_" filterUnits="userSpaceOnUse" x="39" y="2" width="31" height="16">
					<feColorMatrix  type="matrix" values="1 0 0 0 0  0 1 0 0 0  0 0 1 0 0  0 0 0 1 0"/>
				</filter>
			</defs>
			<mask maskUnits="userSpaceOnUse" x="39" y="2" width="31" height="16" id="react-mask-509_1_">
				<g class="st19">
					<path id="react-path-508_2_" class="st2" d="M35.1,15.1C36.2,24.6,44.2,32,54,32c9.8,0,17.9-7.4,18.9-17c0.1-0.8-0.8-2-1.8-2
						c-14.9,0-26.3,0-34,0C36,13,35,14.2,35.1,15.1z"/>
				</g>
			</mask>
			<path id="Teeth" class="st20" d="M44,2h21c2.8,0,5,2.2,5,5v6c0,2.8-2.2,5-5,5H44c-2.8,0-5-2.2-5-5V7C39,4.2,41.2,2,44,2z"/>
			<defs>
				<filter id="Adobe_OpacityMaskFilter_7_" filterUnits="userSpaceOnUse" x="38" y="24" width="32" height="22">
					<feColorMatrix  type="matrix" values="1 0 0 0 0  0 1 0 0 0  0 0 1 0 0  0 0 0 1 0"/>
				</filter>
			</defs>
			<mask maskUnits="userSpaceOnUse" x="38" y="24" width="32" height="22" id="react-mask-509_2_">
				<g class="st21">
					<path id="react-path-508_3_" class="st2" d="M35.1,15.1C36.2,24.6,44.2,32,54,32c9.8,0,17.9-7.4,18.9-17c0.1-0.8-0.8-2-1.8-2
						c-14.9,0-26.3,0-34,0C36,13,35,14.2,35.1,15.1z"/>
				</g>
			</mask>
			<g id="Tongue" class="st22">
				<g transform="translate(38.000000, 24.000000)">
					<circle class="st23" cx="11" cy="11" r="11"/>
					<circle class="st23" cx="21" cy="11" r="11"/>
				</g>
			</g>
		</g>
		<g id="Nose_x2F_Default" transform="translate(28.000000, 40.000000)">
			<path id="Nose" class="st24" d="M16,8c0,4.4,5.4,8,12,8l0,0c6.6,0,12-3.6,12-8"/>
		</g>
		<g id="Eyes_x2F_Happy-_xD83D__xDE01_" transform="translate(0.000000, 8.000000)">
			<path id="Squint" class="st25" d="M16.2,22.4C18,18.6,22.2,16,27,16c4.8,0,9,2.6,10.8,6.4c0.6,1.1-0.2,2-1,1.4
				c-2.5-2.1-5.9-3.4-9.8-3.4c-3.7,0-7.1,1.2-9.6,3.2C16.5,24.3,15.6,23.6,16.2,22.4z"/>
			<path id="Squint_1_" class="st25" d="M74.2,22.4C76,18.6,80.2,16,85,16c4.8,0,9,2.6,10.8,6.4c0.6,1.1-0.2,2-1,1.4
				c-2.5-2.1-5.9-3.4-9.8-3.4c-3.7,0-7.1,1.2-9.6,3.2C74.5,24.3,73.6,23.6,74.2,22.4z"/>
		</g>
		<g id="Eyebrow_x2F_Natural_x2F_Raised-Excited-Natural">
			<path id="Eye-Browse-Reddit" class="st25" d="M22.8,1.6l0.9-0.4c5.2-2.1,13.2-1.2,18,1.1c0.6,0.3,0.2,1.2-0.4,1.1
				c-14.9-1.2-25,8.1-28.4,14.4c-0.1,0.2-0.4,0.2-0.5,0C10.2,12.6,16.9,3.9,22.8,1.6z"/>
			<path id="Eye-Browse-Reddit_1_" class="st25" d="M89.2,1.6l-0.9-0.4c-5.2-2.1-13.2-1.2-18,1.1c-0.6,0.3-0.2,1.2,0.4,1.1
				c14.9-1.2,25,8.1,28.4,14.4c0.1,0.2,0.4,0.2,0.5,0C101.8,12.6,95.1,3.9,89.2,1.6z"/>
		</g>
	</g>
	<g id="Top">
		<g id="Mask_1_">
		</g>
		<defs>
			<filter id="Adobe_OpacityMaskFilter_8_" filterUnits="userSpaceOnUse" x="74" y="34" width="264" height="280">
				<feColorMatrix  type="matrix" values="1 0 0 0 0  0 1 0 0 0  0 0 1 0 0  0 0 0 1 0"/>
			</filter>
		</defs>
		<mask maskUnits="userSpaceOnUse" x="74" y="34" width="264" height="280" id="react-mask-523_1_">
			<g class="st26">
				<rect id="react-path-525_1_" class="st2" width="264" height="280"/>
			</g>
		</mask>
		<g id="Top_x2F_Short-Hair_x2F_The-Caesar-_x2B_-Side-Part" class="st27">
			<g transform="translate(-1.000000, 0.000000)">
				<g id="Hair" transform="translate(75.000000, 34.000000)">
					<g id="Caesar">
						<path id="react-path-526_1_" class="st28" d="M82,24.4c-7-0.7-15.4-1.1-23.7-1.1C39,23.2,19.6,25.5,16,28
							C6.3,35.2,2.5,62.4,3,64c-0.3,1.2-1.7,1.5-2,0C0.3,53.7,1,1.7,58,1s57.7,52.7,57,63c-0.3,1.5-1.7,1.2-2,0
							c0.5-1.6-3.3-28.8-13-36c-1.8-1.2-7.2-2.4-14.6-3.3L89,16L82,24.4z"/>
					</g>
					<defs>
						<filter id="Adobe_OpacityMaskFilter_9_" filterUnits="userSpaceOnUse" x="0" y="0" width="264" height="280">
							<feColorMatrix  type="matrix" values="1 0 0 0 0  0 1 0 0 0  0 0 1 0 0  0 0 0 1 0"/>
						</filter>
					</defs>
					<mask maskUnits="userSpaceOnUse" x="0" y="0" width="264" height="280" id="react-mask-524_1_">
						<g class="st29">
							<path id="react-path-526_2_" class="st2" d="M82,24.4c-7-0.7-15.4-1.1-23.7-1.1C39,23.2,19.6,25.5,16,28
								C6.3,35.2,2.5,62.4,3,64c-0.3,1.2-1.7,1.5-2,0C0.3,53.7,1,1.7,58,1s57.7,52.7,57,63c-0.3,1.5-1.7,1.2-2,0
								c0.5-1.6-3.3-28.8-13-36c-1.8-1.2-7.2-2.4-14.6-3.3L89,16L82,24.4z"/>
						</g>
					</mask>
					<g id="Skin_x2F__xD83D__xDC76__xD83C__xDFFD_-03-Brown_1_" class="st30">
						<g id="Color_1_" transform="translate(0.000000, 0.000000) ">
							<rect class="st31" width="264" height="280"/>
						</g>
					</g>
				</g>
			</g>
		</g>
	</g>
</g>
</svg>
