<?xml version="1.0" encoding="utf-8"?>
<!-- Generator: Adobe Illustrator 24.0.1, SVG Export Plug-In . SVG Version: 6.00 Build 0)  -->
<svg version="1.1" id="Layer_1" xmlns="http://www.w3.org/2000/svg" xmlns:xlink="http://www.w3.org/1999/xlink" x="0px" y="0px"
	 viewBox="0 0 264 280" style="enable-background:new 0 0 264 280;" xml:space="preserve">
<style type="text/css">
	.st0{fill-rule:evenodd;clip-rule:evenodd;fill:#40E4BF;}
	.st1{filter:url(#Adobe_OpacityMaskFilter);}
	.st2{fill-rule:evenodd;clip-rule:evenodd;fill:#FFFFFF;}
	.st3{mask:url(#mask-2_1_);}
	.st4{filter:url(#Adobe_OpacityMaskFilter_1_);}
	.st5{mask:url(#mask-4_1_);}
	.st6{fill-rule:evenodd;clip-rule:evenodd;fill:#D0C6AC;}
	.st7{filter:url(#Adobe_OpacityMaskFilter_2_);}
	.st8{mask:url(#mask-6_1_);}
	.st9{fill-rule:evenodd;clip-rule:evenodd;fill:#EDB98A;}
	.st10{filter:url(#Adobe_OpacityMaskFilter_3_);}
	.st11{mask:url(#mask-6_2_);fill-rule:evenodd;clip-rule:evenodd;fill-opacity:0.1;}
	.st12{fill-rule:evenodd;clip-rule:evenodd;fill:#B7C1DB;}
	.st13{filter:url(#Adobe_OpacityMaskFilter_4_);}
	.st14{mask:url(#react-mask-212_1_);}
	.st15{fill-rule:evenodd;clip-rule:evenodd;fill:#FFFFB1;}
	.st16{filter:url(#Adobe_OpacityMaskFilter_5_);}
	.st17{mask:url(#react-mask-212_2_);fill-rule:evenodd;clip-rule:evenodd;fill:#F4F4F4;}
	.st18{filter:url(#Adobe_OpacityMaskFilter_6_);}
	.st19{mask:url(#react-mask-212_3_);fill-rule:evenodd;clip-rule:evenodd;fill-opacity:0.16;}
	.st20{fill-rule:evenodd;clip-rule:evenodd;fill-opacity:0.7;}
	.st21{filter:url(#Adobe_OpacityMaskFilter_7_);}
	.st22{mask:url(#react-mask-249_1_);fill-rule:evenodd;clip-rule:evenodd;fill:#FFFFFF;}
	.st23{filter:url(#Adobe_OpacityMaskFilter_8_);}
	.st24{mask:url(#react-mask-249_2_);}
	.st25{fill-rule:evenodd;clip-rule:evenodd;fill:#FF4F6D;}
	.st26{fill-rule:evenodd;clip-rule:evenodd;fill-opacity:0.16;}
	.st27{filter:url(#Adobe_OpacityMaskFilter_9_);}
	.st28{mask:url(#react-mask-252_1_);fill-rule:evenodd;clip-rule:evenodd;fill-opacity:0.7;}
	.st29{filter:url(#Adobe_OpacityMaskFilter_10_);}
	.st30{mask:url(#react-mask-253_1_);fill-rule:evenodd;clip-rule:evenodd;fill-opacity:0.7;}
	.st31{fill-opacity:0.6;}
	.st32{filter:url(#Adobe_OpacityMaskFilter_11_);}
	.st33{mask:url(#react-mask-234_1_);}
	.st34{fill-rule:evenodd;clip-rule:evenodd;fill:#28354B;}
	.st35{filter:url(#Adobe_OpacityMaskFilter_12_);}
	.st36{mask:url(#react-mask-233_1_);}
	.st37{fill-rule:evenodd;clip-rule:evenodd;fill:#2C1B18;}
	.st38{fill-rule:evenodd;clip-rule:evenodd;}
	.st39{fill-rule:evenodd;clip-rule:evenodd;fill:#252C2F;}
</style>
<desc>Created with getavataaars.com</desc>
<g id="Avataaar_1_">
	<g transform="translate(825.000000, 1100.000000)">
		<g id="Circle" transform="translate(12.000000, 40.000000)">
			<g id="Circle-Background">
				<circle id="path-1_1_" class="st0" cx="-705" cy="-980" r="120"/>
			</g>
			<defs>
				<filter id="Adobe_OpacityMaskFilter" filterUnits="userSpaceOnUse" x="-825" y="-1100" width="240" height="240">
					<feColorMatrix  type="matrix" values="1 0 0 0 0  0 1 0 0 0  0 0 1 0 0  0 0 0 1 0"/>
				</filter>
			</defs>
			<mask maskUnits="userSpaceOnUse" x="-825" y="-1100" width="240" height="240" id="mask-2_1_">
				<g class="st1">
					<circle id="path-1_2_" class="st2" cx="-705" cy="-980" r="120"/>
				</g>
			</mask>
			<g id="Color_x2F_Palette_x2F_Blue-01" class="st3">
				<rect id="_xD83D__xDD8D_Color" x="-825" y="-1100" class="st0" width="240" height="240"/>
			</g>
		</g>
		<g id="Mask">
		</g>
		<defs>
			<filter id="Adobe_OpacityMaskFilter_1_" filterUnits="userSpaceOnUse" x="-826" y="-1100" width="265" height="280">
				<feColorMatrix  type="matrix" values="1 0 0 0 0  0 1 0 0 0  0 0 1 0 0  0 0 0 1 0"/>
			</filter>
		</defs>
		<mask maskUnits="userSpaceOnUse" x="-826" y="-1100" width="265" height="280" id="mask-4_1_">
			<g class="st4">
				<path id="path-3_1_" class="st2" d="M-813-940c0,66.3,53.7,120,120,120s120-53.7,120-120h12v-160h-264v160H-813z"/>
			</g>
		</mask>
		<g id="Avataaar" class="st5">
			<g id="Body" transform="translate(32.000000, 36.000000)">
				<g>
					<path id="path-5_1_" class="st6" d="M-701-955.4v18.4h4l0,0c39.8,0,72,32.2,72,72v9h-200v-9c0-39.8,32.2-72,72-72l0,0h4v-18.4
						c-17.2-8.2-29.6-24.9-31.7-44.7c-5.8-0.8-10.3-5.8-10.3-11.9v-14c0-5.9,4.3-10.9,10-11.8v-6.2l0,0c0-30.9,25.1-56,56-56l0,0
						l0,0c30.9,0,56,25.1,56,56v6.2c5.7,1,10,5.9,10,11.8v14c0,6.1-4.5,11.1-10.3,11.9C-671.4-980.3-683.8-963.6-701-955.4z"/>
				</g>
				<defs>
					<filter id="Adobe_OpacityMaskFilter_2_" filterUnits="userSpaceOnUse" x="-857" y="-1100" width="264" height="244">
						<feColorMatrix  type="matrix" values="1 0 0 0 0  0 1 0 0 0  0 0 1 0 0  0 0 0 1 0"/>
					</filter>
				</defs>
				<mask maskUnits="userSpaceOnUse" x="-857" y="-1100" width="264" height="244" id="mask-6_1_">
					<g class="st7">
						<path id="path-5_2_" class="st2" d="M-701-955.4v18.4h4l0,0c39.8,0,72,32.2,72,72v9h-200v-9c0-39.8,32.2-72,72-72l0,0h4v-18.4
							c-17.2-8.2-29.6-24.9-31.7-44.7c-5.8-0.8-10.3-5.8-10.3-11.9v-14c0-5.9,4.3-10.9,10-11.8v-6.2l0,0c0-30.9,25.1-56,56-56l0,0
							l0,0c30.9,0,56,25.1,56,56v6.2c5.7,1,10,5.9,10,11.8v14c0,6.1-4.5,11.1-10.3,11.9C-671.4-980.3-683.8-963.6-701-955.4z"/>
					</g>
				</mask>
				<g id="Skin_x2F__xD83D__xDC76__xD83C__xDFFD_-03-Brown" class="st8">
					<g id="Color" transform="translate(-32.000000, 0.000000)">
						<rect x="-825" y="-1100" class="st9" width="264" height="244"/>
					</g>
				</g>
				<defs>
					<filter id="Adobe_OpacityMaskFilter_3_" filterUnits="userSpaceOnUse" x="-781" y="-1021" width="112" height="79">
						<feColorMatrix  type="matrix" values="1 0 0 0 0  0 1 0 0 0  0 0 1 0 0  0 0 0 1 0"/>
					</filter>
				</defs>
				<mask maskUnits="userSpaceOnUse" x="-781" y="-1021" width="112" height="79" id="mask-6_2_">
					<g class="st10">
						<path id="path-5_3_" class="st2" d="M-701-955.4v18.4h4l0,0c39.8,0,72,32.2,72,72v9h-200v-9c0-39.8,32.2-72,72-72l0,0h4v-18.4
							c-17.2-8.2-29.6-24.9-31.7-44.7c-5.8-0.8-10.3-5.8-10.3-11.9v-14c0-5.9,4.3-10.9,10-11.8v-6.2l0,0c0-30.9,25.1-56,56-56l0,0
							l0,0c30.9,0,56,25.1,56,56v6.2c5.7,1,10,5.9,10,11.8v14c0,6.1-4.5,11.1-10.3,11.9C-671.4-980.3-683.8-963.6-701-955.4z"/>
					</g>
				</mask>
				<path id="Neck-Shadow" class="st11" d="M-669-1021v23c0,30.9-25.1,56-56,56s-56-25.1-56-56v-23v15c0,30.9,25.1,56,56,56
					s56-25.1,56-56V-1021z"/>
			</g>
			<g id="Clothing_x2F_Hoodie" transform="translate(0.000000, 170.000000)">
				<g id="Hoodie">
					<path id="react-path-211_1_" class="st12" d="M-717-1086.9c-17.9,2-31.7,7.5-32,21.6c-25.9,10.9-44,36.5-44,66.4l0,0v9h200v-9
						c0-29.8-18.1-55.4-44-66.4c-0.3-14.1-14.1-19.6-32-21.6v18.9l0,0c0,13.3-10.7,24-24,24l0,0c-13.3,0-24-10.7-24-24V-1086.9z"/>
				</g>
				<defs>
					<filter id="Adobe_OpacityMaskFilter_4_" filterUnits="userSpaceOnUse" x="-825" y="-1100" width="264" height="110">
						<feColorMatrix  type="matrix" values="1 0 0 0 0  0 1 0 0 0  0 0 1 0 0  0 0 0 1 0"/>
					</filter>
				</defs>
				<mask maskUnits="userSpaceOnUse" x="-825" y="-1100" width="264" height="110" id="react-mask-212_1_">
					<g class="st13">
						<path id="react-path-211_2_" class="st2" d="M-717-1086.9c-17.9,2-31.7,7.5-32,21.6c-25.9,10.9-44,36.5-44,66.4l0,0v9h200v-9
							c0-29.8-18.1-55.4-44-66.4c-0.3-14.1-14.1-19.6-32-21.6v18.9l0,0c0,13.3-10.7,24-24,24l0,0c-13.3,0-24-10.7-24-24V-1086.9z"/>
					</g>
				</mask>
				<g id="Color_x2F_Palette_x2F_Gray-01" class="st14">
					<rect id="_xD83D__xDD8D_Color_1_" x="-825" y="-1100" class="st15" width="264" height="110"/>
				</g>
				<defs>
					<filter id="Adobe_OpacityMaskFilter_5_" filterUnits="userSpaceOnUse" x="-730" y="-1041.8" width="74" height="51.8">
						<feColorMatrix  type="matrix" values="1 0 0 0 0  0 1 0 0 0  0 0 1 0 0  0 0 0 1 0"/>
					</filter>
				</defs>
				<mask maskUnits="userSpaceOnUse" x="-730" y="-1041.8" width="74" height="51.8" id="react-mask-212_2_">
					<g class="st16">
						<path id="react-path-211_3_" class="st2" d="M-717-1086.9c-17.9,2-31.7,7.5-32,21.6c-25.9,10.9-44,36.5-44,66.4l0,0v9h200v-9
							c0-29.8-18.1-55.4-44-66.4c-0.3-14.1-14.1-19.6-32-21.6v18.9l0,0c0,13.3-10.7,24-24,24l0,0c-13.3,0-24-10.7-24-24V-1086.9z"/>
					</g>
				</mask>
				<path id="Straps" class="st17" d="M-723-1038.3v48.3h-7v-51.8C-727.8-1040.5-725.5-1039.3-723-1038.3z M-656-1041.8v40.3
					c0,1.9-1.6,3.5-3.5,3.5s-3.5-1.6-3.5-3.5v-36.8C-660.5-1039.3-658.2-1040.5-656-1041.8z"/>
				<defs>
					<filter id="Adobe_OpacityMaskFilter_6_" filterUnits="userSpaceOnUse" x="-759.5" y="-1087.3" width="133" height="55.3">
						<feColorMatrix  type="matrix" values="1 0 0 0 0  0 1 0 0 0  0 0 1 0 0  0 0 0 1 0"/>
					</filter>
				</defs>
				<mask maskUnits="userSpaceOnUse" x="-759.5" y="-1087.3" width="133" height="55.3" id="react-mask-212_3_">
					<g class="st18">
						<path id="react-path-211_4_" class="st2" d="M-717-1086.9c-17.9,2-31.7,7.5-32,21.6c-25.9,10.9-44,36.5-44,66.4l0,0v9h200v-9
							c0-29.8-18.1-55.4-44-66.4c-0.3-14.1-14.1-19.6-32-21.6v18.9l0,0c0,13.3-10.7,24-24,24l0,0c-13.3,0-24-10.7-24-24V-1086.9z"/>
					</g>
				</mask>
				<path id="Shadow" class="st19" d="M-734-1087.3c-15.1,2.8-25.5,8.5-25.5,19.6c0,19.7,33,35.7,66.5,35.7s66.5-16,66.5-35.7
					c0-11.1-10.4-16.7-25.5-19.6c9.1,3.4,15,9,15,18.4c0,20.4-27.8,36.9-56,36.9c-28.2,0-56-16.5-56-36.9
					C-749-1078.3-743.1-1083.9-734-1087.3z"/>
			</g>
			<g id="Face" transform="translate(76.000000, 82.000000)">
				<g id="Mouth_x2F_Smile" transform="translate(2.000000, 52.000000)">
					<g id="Mouth">
						<path id="react-path-248_1_" class="st20" d="M-789.9-1084.9c1.1,9.5,9.1,16.9,18.9,16.9c9.8,0,17.9-7.4,18.9-17
							c0.1-0.8-0.8-2-1.8-2c-14.9,0-26.3,0-34,0C-789-1087-790-1085.8-789.9-1084.9z"/>
					</g>
					<defs>
						<filter id="Adobe_OpacityMaskFilter_7_" filterUnits="userSpaceOnUse" x="-786" y="-1098" width="31" height="16">
							<feColorMatrix  type="matrix" values="1 0 0 0 0  0 1 0 0 0  0 0 1 0 0  0 0 0 1 0"/>
						</filter>
					</defs>
					<mask maskUnits="userSpaceOnUse" x="-786" y="-1098" width="31" height="16" id="react-mask-249_1_">
						<g class="st21">
							<path id="react-path-248_2_" class="st2" d="M-789.9-1084.9c1.1,9.5,9.1,16.9,18.9,16.9c9.8,0,17.9-7.4,18.9-17
								c0.1-0.8-0.8-2-1.8-2c-14.9,0-26.3,0-34,0C-789-1087-790-1085.8-789.9-1084.9z"/>
						</g>
					</mask>
					<path id="Teeth" class="st22" d="M-781-1098h21c2.8,0,5,2.2,5,5v6c0,2.8-2.2,5-5,5h-21c-2.8,0-5-2.2-5-5v-6
						C-786-1095.8-783.8-1098-781-1098z"/>
					<defs>
						<filter id="Adobe_OpacityMaskFilter_8_" filterUnits="userSpaceOnUse" x="-787" y="-1076" width="32" height="22">
							<feColorMatrix  type="matrix" values="1 0 0 0 0  0 1 0 0 0  0 0 1 0 0  0 0 0 1 0"/>
						</filter>
					</defs>
					<mask maskUnits="userSpaceOnUse" x="-787" y="-1076" width="32" height="22" id="react-mask-249_2_">
						<g class="st23">
							<path id="react-path-248_3_" class="st2" d="M-789.9-1084.9c1.1,9.5,9.1,16.9,18.9,16.9c9.8,0,17.9-7.4,18.9-17
								c0.1-0.8-0.8-2-1.8-2c-14.9,0-26.3,0-34,0C-789-1087-790-1085.8-789.9-1084.9z"/>
						</g>
					</mask>
					<g id="Tongue" class="st24">
						<g transform="translate(38.000000, 24.000000)">
							<circle class="st25" cx="-814" cy="-1089" r="11"/>
							<circle class="st25" cx="-804" cy="-1089" r="11"/>
						</g>
					</g>
				</g>
				<g id="Nose_x2F_Default" transform="translate(28.000000, 40.000000)">
					<path id="Nose" class="st26" d="M-809-1092c0,4.4,5.4,8,12,8l0,0c6.6,0,12-3.6,12-8"/>
				</g>
				<g id="Eyes_x2F_Squint-_xD83D__xDE0A_" transform="translate(0.000000, 8.000000)">
					<g id="Eye" transform="translate(16.000000, 13.000000)">
						<g id="The-white-stuff">
							<path id="react-path-250_1_" class="st2" d="M-811-1086c9.6,0,14,4.5,14-2.5s-6.3-11.6-14-11.6s-14,4.6-14,11.6
								S-820.6-1086-811-1086z"/>
						</g>
						<defs>
							<filter id="Adobe_OpacityMaskFilter_9_" filterUnits="userSpaceOnUse" x="-817" y="-1096" width="12" height="12">
								<feColorMatrix  type="matrix" values="1 0 0 0 0  0 1 0 0 0  0 0 1 0 0  0 0 0 1 0"/>
							</filter>
						</defs>
						<mask maskUnits="userSpaceOnUse" x="-817" y="-1096" width="12" height="12" id="react-mask-252_1_">
							<g class="st27">
								<path id="react-path-250_2_" class="st2" d="M-811-1086c9.6,0,14,4.5,14-2.5s-6.3-11.6-14-11.6s-14,4.6-14,11.6
									S-820.6-1086-811-1086z"/>
							</g>
						</mask>
						<circle class="st28" cx="-811" cy="-1090" r="6"/>
					</g>
					<g id="Eye_1_" transform="translate(68.000000, 13.000000)">
						<g id="Eyeball-Mask">
							<path id="react-path-251_1_" class="st2" d="M-811-1086c9.6,0,14,4.5,14-2.5s-6.3-11.6-14-11.6s-14,4.6-14,11.6
								S-820.6-1086-811-1086z"/>
						</g>
						<defs>
							<filter id="Adobe_OpacityMaskFilter_10_" filterUnits="userSpaceOnUse" x="-817" y="-1096" width="12" height="12">
								<feColorMatrix  type="matrix" values="1 0 0 0 0  0 1 0 0 0  0 0 1 0 0  0 0 0 1 0"/>
							</filter>
						</defs>
						<mask maskUnits="userSpaceOnUse" x="-817" y="-1096" width="12" height="12" id="react-mask-253_1_">
							<g class="st29">
								<path id="react-path-251_2_" class="st2" d="M-811-1086c9.6,0,14,4.5,14-2.5s-6.3-11.6-14-11.6s-14,4.6-14,11.6
									S-820.6-1086-811-1086z"/>
							</g>
						</mask>
						<circle class="st30" cx="-811" cy="-1090" r="6"/>
					</g>
				</g>
				<g id="Eyebrow_x2F_Outline_x2F_Raised-Excited">
					<g id="I-Browse" transform="translate(12.000000, 0.000000)">
						<path id="Eyebrow" class="st31" d="M-821-1082.9c1.5-9.5,14.1-16,23.2-11.8c1,0.5,2.2,0,2.7-1c0.5-1,0-2.2-1-2.7
							c-11.5-5.3-26.9,2.7-28.8,14.8c-0.2,1.1,0.6,2.1,1.7,2.3C-822.2-1081-821.2-1081.8-821-1082.9z"/>
						<path id="Eyebrow_1_" class="st31" d="M-741-1082.9c-1.5-9.5-14.1-16-23.2-11.8c-1,0.5-2.2,0-2.7-1c-0.5-1,0-2.2,1-2.7
							c11.5-5.3,26.9,2.7,28.8,14.8c0.2,1.1-0.6,2.1-1.7,2.3C-739.8-1081-740.8-1081.8-741-1082.9z"/>
					</g>
				</g>
			</g>
			<g id="Top">
				<g id="Mask_1_">
				</g>
				<defs>
					<filter id="Adobe_OpacityMaskFilter_11_" filterUnits="userSpaceOnUse" x="-826" y="-1100" width="264" height="280">
						<feColorMatrix  type="matrix" values="1 0 0 0 0  0 1 0 0 0  0 0 1 0 0  0 0 0 1 0"/>
					</filter>
				</defs>
				<mask maskUnits="userSpaceOnUse" x="-826" y="-1100" width="264" height="280" id="react-mask-234_1_">
					<g class="st32">
						<rect id="react-path-236_1_" x="-825" y="-1100" class="st2" width="264" height="280"/>
					</g>
				</mask>
				<g id="Top_x2F_Short-Hair_x2F_Short-Curly" class="st33">
					<g transform="translate(-1.000000, 0.000000)">
						<g id="Short-Hair">
							<path id="react-path-235_1_" class="st34" d="M-730.7-1048c0.1-0.1-0.2-0.1-0.9-0.1C-730.8-1048-730.5-1048-730.7-1048
								 M-738.9-1063.7C-738.9-1063.7-738.9-1063.5-738.9-1063.7 M-631.2-1029.2c-0.3-3.3-0.7-6.6-1.5-9.9c-0.6-2.6-1.5-5-2.5-7.5
								c-0.6-1.5-2-3.5-2.2-5.1c-0.2-1.6,1.1-3.3,1.3-5.2c0.3-1.8,0.2-3.7-0.2-5.4c-0.8-4-3.6-7.8-7.9-8.8c-1-0.2-3,0.1-3.6-0.5
								c-0.8-0.6-1.3-2.8-2-3.7c-2-2.5-5.1-4.1-8.4-3.5c-2.4,0.4-1,0.9-2.8-0.5c-1-0.8-1.8-2-2.7-2.8c-1.5-1.3-3.2-2.4-4.9-3.3
								c-4.6-2.4-9.8-4.1-14.8-4.9c-9.3-1.5-19.2-0.2-28.2,2.2c-4.5,1.2-9,2.7-13.1,4.7c-1.8,0.9-2.8,1.6-4.7,1.8
								c-2.9,0.4-5.4,0.3-8.2,1.6c-8.5,3.8-12.4,12.7-9.1,21.2c0.7,1.7,1.6,3.2,2.8,4.6c1.5,1.7,2.1,1.3,0.8,3.3c-2,2.9-3.6,6-5,9.2
								c-3.5,8.4-4.1,17.9-3.9,26.8c0.1,3.1,0.2,6.3,0.7,9.4c0.2,1.3,0.3,3.9,1.3,4.9c0.5,0.5,1.2,0.8,2,0.6
								c1.7-0.5,1.1-1.7,1.2-2.9c0.2-5.9-0.1-11.1,1.3-16.9c1-4.3,2.8-8.2,5-12c2.8-4.9,5.9-9.2,9.8-13.4c0.9-1,1.1-1.4,2.3-1.5
								c0.9-0.1,2.3,0.6,3.2,0.8c2,0.5,4,1,6,1.3c3.7,0.6,7.4,0.6,11.2,0.5c7.4-0.2,14.9-0.8,22.1-2.6c4.8-1.2,9-3.5,13.6-5.1
								c0.1,0,1.2-0.8,1.4-0.8c0.3,0,2,1.8,2.3,2c2.2,1.7,4.7,2.5,7.1,3.8c3,1.7,0.1-0.7,1.7,1.4c0.5,0.6,0.7,1.7,1.1,2.4
								c1.2,2.2,2.9,4.1,4.9,5.6c2,1.5,4.9,2.2,5.9,4.1c0.8,1.5,1,3.5,1.6,5.1c1.6,4.1,3.8,8,5.9,11.9c1.7,3.1,3.6,5.9,3.8,9.5
								c0.1,1.2-1.1,8.7,1.8,6.5c0.4-0.3,1.4-4.2,1.5-4.8c0.8-2.6,1-5.4,1.4-8.1C-631-1018.7-630.8-1023.8-631.2-1029.2"/>
						</g>
						<defs>
							<filter id="Adobe_OpacityMaskFilter_12_" filterUnits="userSpaceOnUse" x="-825" y="-1100" width="264" height="280">
								<feColorMatrix  type="matrix" values="1 0 0 0 0  0 1 0 0 0  0 0 1 0 0  0 0 0 1 0"/>
							</filter>
						</defs>
						<mask maskUnits="userSpaceOnUse" x="-825" y="-1100" width="264" height="280" id="react-mask-233_1_">
							<g class="st35">
								<path id="react-path-235_2_" class="st2" d="M-730.7-1048c0.1-0.1-0.2-0.1-0.9-0.1C-730.8-1048-730.5-1048-730.7-1048
									 M-738.9-1063.7C-738.9-1063.7-738.9-1063.5-738.9-1063.7 M-631.2-1029.2c-0.3-3.3-0.7-6.6-1.5-9.9c-0.6-2.6-1.5-5-2.5-7.5
									c-0.6-1.5-2-3.5-2.2-5.1c-0.2-1.6,1.1-3.3,1.3-5.2c0.3-1.8,0.2-3.7-0.2-5.4c-0.8-4-3.6-7.8-7.9-8.8c-1-0.2-3,0.1-3.6-0.5
									c-0.8-0.6-1.3-2.8-2-3.7c-2-2.5-5.1-4.1-8.4-3.5c-2.4,0.4-1,0.9-2.8-0.5c-1-0.8-1.8-2-2.7-2.8c-1.5-1.3-3.2-2.4-4.9-3.3
									c-4.6-2.4-9.8-4.1-14.8-4.9c-9.3-1.5-19.2-0.2-28.2,2.2c-4.5,1.2-9,2.7-13.1,4.7c-1.8,0.9-2.8,1.6-4.7,1.8
									c-2.9,0.4-5.4,0.3-8.2,1.6c-8.5,3.8-12.4,12.7-9.1,21.2c0.7,1.7,1.6,3.2,2.8,4.6c1.5,1.7,2.1,1.3,0.8,3.3
									c-2,2.9-3.6,6-5,9.2c-3.5,8.4-4.1,17.9-3.9,26.8c0.1,3.1,0.2,6.3,0.7,9.4c0.2,1.3,0.3,3.9,1.3,4.9c0.5,0.5,1.2,0.8,2,0.6
									c1.7-0.5,1.1-1.7,1.2-2.9c0.2-5.9-0.1-11.1,1.3-16.9c1-4.3,2.8-8.2,5-12c2.8-4.9,5.9-9.2,9.8-13.4c0.9-1,1.1-1.4,2.3-1.5
									c0.9-0.1,2.3,0.6,3.2,0.8c2,0.5,4,1,6,1.3c3.7,0.6,7.4,0.6,11.2,0.5c7.4-0.2,14.9-0.8,22.1-2.6c4.8-1.2,9-3.5,13.6-5.1
									c0.1,0,1.2-0.8,1.4-0.8c0.3,0,2,1.8,2.3,2c2.2,1.7,4.7,2.5,7.1,3.8c3,1.7,0.1-0.7,1.7,1.4c0.5,0.6,0.7,1.7,1.1,2.4
									c1.2,2.2,2.9,4.1,4.9,5.6c2,1.5,4.9,2.2,5.9,4.1c0.8,1.5,1,3.5,1.6,5.1c1.6,4.1,3.8,8,5.9,11.9c1.7,3.1,3.6,5.9,3.8,9.5
									c0.1,1.2-1.1,8.7,1.8,6.5c0.4-0.3,1.4-4.2,1.5-4.8c0.8-2.6,1-5.4,1.4-8.1C-631-1018.7-630.8-1023.8-631.2-1029.2"/>
							</g>
						</mask>
						<g id="Skin_x2F__xD83D__xDC76__xD83C__xDFFD_-03-Brown_1_" class="st36">
							<g id="Color_1_" transform="translate(0.000000, 0.000000) ">
								<rect x="-825" y="-1100" class="st37" width="264" height="280"/>
							</g>
						</g>
						<g id="Top_x2F__x5F_Resources_x2F_Round" transform="translate(62.000000, 85.000000)">
							<g id="Lennon-Glasses">
								<g>
									<path id="react-path-246" class="st38" d="M-744.5-1083.6c3.9-7.9,12.1-13.4,21.5-13.4c8.9,0,16.7,4.9,20.8,12.1
										c0.2-0.1,0.4-0.1,0.7-0.1h8c1.4,0,2.5,1.1,2.5,2.5s-1.1,2.5-2.5,2.5h-6.5c0.7,2.2,1,4.6,1,7c0,13.3-10.7,24-24,24
										s-24-10.7-24-24c0-1.4,0.1-2.8,0.4-4.2c-0.1-4.4-3.4-7.8-7.5-7.8c-3.7,0-6.9,2.9-7.4,6.8c0.4,1.7,0.6,3.4,0.6,5.2
										c0,13.3-10.7,24-24,24s-24-10.7-24-24c0-2.4,0.4-4.8,1-7h-6.5c-1.4,0-2.5-1.1-2.5-2.5s1.1-2.5,2.5-2.5l0,0h8
										c0.2,0,0.4,0,0.7,0.1c4.1-7.2,11.9-12.1,20.8-12.1c9.4,0,17.5,5.3,21.4,13.2c2.1-3.1,5.5-5.2,9.4-5.2
										C-750.1-1089-746.6-1086.9-744.5-1083.6z M-785-1053c11,0,20-9,20-20s-9-20-20-20s-20,9-20,20S-796-1053-785-1053z
										 M-723-1053c11,0,20-9,20-20s-9-20-20-20s-20,9-20,20S-734-1053-723-1053z"/>
								</g>
								<g>
									<path id="react-path-246_1_" class="st39" d="M-744.5-1083.6c3.9-7.9,12.1-13.4,21.5-13.4c8.9,0,16.7,4.9,20.8,12.1
										c0.2-0.1,0.4-0.1,0.7-0.1h8c1.4,0,2.5,1.1,2.5,2.5s-1.1,2.5-2.5,2.5h-6.5c0.7,2.2,1,4.6,1,7c0,13.3-10.7,24-24,24
										s-24-10.7-24-24c0-1.4,0.1-2.8,0.4-4.2c-0.1-4.4-3.4-7.8-7.5-7.8c-3.7,0-6.9,2.9-7.4,6.8c0.4,1.7,0.6,3.4,0.6,5.2
										c0,13.3-10.7,24-24,24s-24-10.7-24-24c0-2.4,0.4-4.8,1-7h-6.5c-1.4,0-2.5-1.1-2.5-2.5s1.1-2.5,2.5-2.5l0,0h8
										c0.2,0,0.4,0,0.7,0.1c4.1-7.2,11.9-12.1,20.8-12.1c9.4,0,17.5,5.3,21.4,13.2c2.1-3.1,5.5-5.2,9.4-5.2
										C-750.1-1089-746.6-1086.9-744.5-1083.6z M-785-1053c11,0,20-9,20-20s-9-20-20-20s-20,9-20,20S-796-1053-785-1053z
										 M-723-1053c11,0,20-9,20-20s-9-20-20-20s-20,9-20,20S-734-1053-723-1053z"/>
								</g>
							</g>
						</g>
					</g>
				</g>
			</g>
		</g>
	</g>
</g>
</svg>
