<?xml version="1.0" encoding="utf-8"?>
<!-- Generator: Adobe Illustrator 24.0.1, SVG Export Plug-In . SVG Version: 6.00 Build 0)  -->
<svg version="1.1" id="Layer_1" xmlns="http://www.w3.org/2000/svg" xmlns:xlink="http://www.w3.org/1999/xlink" x="0px" y="0px"
	 viewBox="0 0 1242 2208" style="enable-background:new 0 0 1242 2208;" xml:space="preserve">
<style type="text/css">
	.st0{fill:#E6E6E6;}
</style>
<g>
	<path class="st0" d="M285.75,135.5c0,5.5-9,10-20,10H131.19c-11,0-20-4.5-20-10s9-10,20-10h134.56
		C276.75,125.5,285.75,130,285.75,135.5z"/>
</g>
<g>
	<path class="st0" d="M285.31,173c0,5.5-9,10-20,10H130.75c-11,0-20-4.5-20-10s9-10,20-10h134.56
		C276.31,163,285.31,167.5,285.31,173z"/>
</g>
<g>
	<path class="st0" d="M285.31,211c0,5.5-9,10-20,10H130.75c-11,0-20-4.5-20-10s9-10,20-10h134.56
		C276.31,201,285.31,205.5,285.31,211z"/>
</g>
</svg>
