<?xml version="1.0" encoding="utf-8"?>
<!-- Generator: Adobe Illustrator 26.0.3, SVG Export Plug-In . SVG Version: 6.00 Build 0)  -->
<svg version="1.1" id="Layer_1" xmlns="http://www.w3.org/2000/svg" xmlns:xlink="http://www.w3.org/1999/xlink" x="0px" y="0px"
	 viewBox="0 0 500 500" style="enable-background:new 0 0 500 500;" xml:space="preserve">
<style type="text/css">
	.st0{opacity:0.5;fill:#403E55;}
	.st1{fill:none;stroke:#4E4E4E;stroke-width:8;stroke-miterlimit:10;stroke-opacity:0.2;stroke-dasharray:25;}
	.st2{opacity:0.5;fill:#7ECCBC;}
	.st3{fill:none;stroke:#676767;stroke-width:8;stroke-miterlimit:10;stroke-opacity:0.2;stroke-dasharray:25;}
</style>
<path class="st0" d="M399.74,152.37c-32.45-17.36-72.27,0.34-72.27,0.34s-22.8,32.51-9.94,81.14
	c12.86,48.62,48.76,65.62,48.76,65.62s42.77-4.26,62.56-34.89c12.2,12.66,26.46,18.24,33.63,12.48c8.07-6.52,4.11-24.82-8.89-40.95
	c-4.82-5.99-10.19-10.77-15.47-14.19c-0.48-5.98-1.38-12.21-3.21-19.13c-1.71-6.45-3.84-12.02-6.14-17.19
	c2.84-5.49,5.06-12.16,6.27-19.58c3.29-20.44-2.32-38.33-12.53-39.99C413.64,124.57,404.21,135.92,399.74,152.37z M258.91,386.45
	c-0.2-4-0.7-7.73-1.28-11.32c0.97-0.26,1.94-0.33,2.94-0.59c15.41-4.08,29.53-10.14,42.57-17.37c1.35,7.71,5.62,16.85,12.51,25.43
	c12.99,16.13,30.07,23.94,38.09,17.46c8.08-6.49,4.11-24.82-8.89-40.95c-6.07-7.53-13.03-13.14-19.51-16.43
	c7.43-5.77,14.41-11.91,20.46-18.57c-15.2-10.79-39.35-32.43-52.86-67.99L145.4,295.16c0,0-14.7,3.77-18.56-10.81
	c-3.85-14.56,10.79-18.56,10.79-18.56l147.5-39.02c-5.86-37.61,4.46-68.39,12.32-85.25c-8.22-2.67-16.9-4.54-25.77-5.91
	c3.63-6,6.57-13.82,8.02-22.72c3.29-20.44-2.32-38.33-12.53-39.99c-10.21-1.67-21.16,13.57-24.47,34.01
	c-1.65,10.17-1.08,19.68,1.18,26.9c-14.87,0.18-30.1,1.85-45.45,5.91c-1,0.27-1.9,0.69-2.93,0.99c-1.16-2.99-2.46-6.06-4.01-9.14
	c-11.23-22.53-28.39-37.52-38.21-33.49c-9.88,4.05-8.68,25.6,2.6,48.18c1.45,2.94,3.06,5.78,4.72,8.46
	c-17.6,9.15-33.19,20.47-45.69,33.72c-4.24-4.78-9.85-9.43-16.58-13.29c-18.48-10.75-37.82-11.98-43.2-2.74
	c-5.37,9.24,5.26,25.43,23.71,36.19c5.43,3.15,10.87,5.39,16.05,6.87c-14.26,25.13-19.34,53.23-12.12,80.52
	c7.32,27.67,26.08,49.91,51.43,64.67c-4.02,3.95-7.88,8.83-11.21,14.56c-10.76,18.46-11.98,37.82-2.74,43.2s25.41-5.25,36.16-23.74
	c4.18-7.15,6.86-14.42,8.15-21.02c17.35,5.29,36.47,7.34,56.23,6.56c-0.16,3.57-0.22,7.27-0.04,11.08
	c1.36,25.19,11.01,44.5,21.57,43.18C252.8,433.12,260.29,411.6,258.91,386.45z"/>
<path class="st1" d="M168.21-7.8c95.94,33.85,143.91,50.78,189.72,33"/>
<path class="st2" d="M465.07,6.09c-8.57-7.73-22.03-5.35-22.03-5.35s-9.39,8.18-9.14,23.95c0.25,15.77,9.9,23.66,9.9,23.66
	s13.34,1.93,21.68-5.91c2.76,4.77,6.68,7.55,9.3,6.33c2.95-1.38,3.12-7.25,0.38-13.14c-1.02-2.19-2.29-4.05-3.64-5.49
	c0.31-1.86,0.5-3.82,0.47-6.07c-0.03-2.09-0.26-3.95-0.57-5.7c1.28-1.46,2.46-3.32,3.39-5.49c2.54-5.97,2.18-11.85-0.8-13.12
	C471.39-1.32,467.67,1.42,465.07,6.09z M404.54,66.74c0.24-1.23,0.37-2.41,0.46-3.54c0.32-0.01,0.61,0.05,0.94,0.04
	c5-0.08,9.76-0.86,14.27-2.08c-0.17,2.45,0.44,5.55,1.89,8.68c2.74,5.89,7.35,9.56,10.28,8.19c2.95-1.37,3.12-7.25,0.38-13.14
	c-1.28-2.75-2.98-4.98-4.7-6.47c2.7-1.2,5.28-2.54,7.63-4.11c-3.81-4.43-9.54-12.84-10.97-24.69l-47.87,0.76
	c0,0-4.76,0.04-4.84-4.69c-0.07-4.72,4.69-4.84,4.69-4.84l47.85-0.76c1.05-11.89,6.52-20.48,10.18-25.03
	c-2.3-1.43-4.8-2.66-7.4-3.74c1.56-1.55,3.04-3.71,4.15-6.31c2.54-5.97,2.18-11.85-0.8-13.12c-2.98-1.28-7.47,2.54-10.02,8.51
	c-1.27,2.97-1.81,5.91-1.67,8.28c-4.54-1.07-9.3-1.71-14.28-1.63c-0.33,0.01-0.63,0.07-0.97,0.08c-0.13-1-0.29-2.03-0.53-3.08
	c-1.72-7.71-5.81-13.57-9.11-13.08c-3.31,0.49-4.57,7.14-2.84,14.87c0.22,1.01,0.5,1.99,0.8,2.93c-6.05,1.46-11.65,3.73-16.46,6.82
	c-0.93-1.78-2.29-3.61-4.05-5.3c-4.82-4.67-10.61-6.5-12.95-4.09c-2.33,2.41-0.32,8.14,4.49,12.81c1.42,1.37,2.9,2.46,4.37,3.3
	c-6.24,6.58-9.9,14.75-9.76,23.6c0.14,8.98,4.18,17.16,10.78,23.57c-1.52,0.9-3.06,2.09-4.51,3.59c-4.67,4.81-6.5,10.61-4.09,12.95
	c2.41,2.33,8.13,0.32,12.8-4.5c1.81-1.86,3.18-3.87,4.07-5.78c4.88,2.92,10.55,4.99,16.63,6.24c-0.32,1.07-0.62,2.2-0.85,3.37
	c-1.49,7.77,0,14.38,3.31,14.77C399.16,80.49,403.06,74.5,404.54,66.74z"/>
<path class="st0" d="M155.3,437.07c-0.77,8.79,6.88,15.9,6.88,15.9s9.32,1.97,18.82-5.45c9.51-7.42,9.88-16.93,9.88-16.93
	s-4.97-9.03-13.58-10.51c1.64-3.88,1.53-7.55-0.42-8.59c-2.2-1.17-5.86,1.43-8.19,5.82c-0.87,1.63-1.41,3.26-1.67,4.75
	c-1.27,0.67-2.56,1.45-3.92,2.51c-1.26,0.98-2.29,1.98-3.21,2.97c-1.48-0.11-3.16,0.03-4.91,0.46c-4.82,1.2-8.23,4.12-7.64,6.53
	C147.86,436.62,151.25,437.63,155.3,437.07z M220.17,446.07c-0.86,0.42-1.64,0.88-2.37,1.35c-0.15-0.19-0.25-0.4-0.41-0.59
	c-2.35-3.01-5.02-5.56-7.84-7.75c1.57-1.02,3.19-2.83,4.43-5.15c2.33-4.38,2.45-8.88,0.26-10.04c-2.19-1.17-5.86,1.43-8.19,5.82
	c-1.09,2.05-1.67,4.11-1.78,5.85c-1.97-1.09-3.98-2.05-6.02-2.76c-0.95,4.37-3.44,11.73-10.01,18.06l22.5,28.86
	c0,0,2.22,2.89-0.63,5.11c-2.85,2.22-5.11-0.63-5.11-0.63l-22.5-28.85c-7.74,4.83-15.5,5.46-19.96,5.31
	c0.19,2.06,0.59,4.15,1.12,6.24c-1.67-0.23-3.67-0.15-5.76,0.37c-4.82,1.2-8.23,4.12-7.64,6.53c0.59,2.41,4.98,3.39,9.8,2.19
	c2.4-0.59,4.44-1.62,5.82-2.79c1.44,3.26,3.24,6.46,5.58,9.46c0.15,0.2,0.33,0.35,0.49,0.55c-0.55,0.54-1.11,1.11-1.64,1.74
	c-3.91,4.6-5.6,9.79-3.78,11.58c1.82,1.8,6.46-0.5,10.38-5.11c0.51-0.6,0.99-1.22,1.42-1.84c3.68,3.02,7.64,5.39,11.74,6.9
	c-0.66,1.39-1.15,3.06-1.37,4.91c-0.63,5.09,0.92,9.47,3.46,9.78c2.54,0.31,5.11-3.55,5.75-8.64c0.18-1.49,0.16-2.9,0-4.19
	c6.88,0.78,13.56-0.75,18.89-4.91c5.41-4.22,8.55-10.45,9.42-17.43c1.25,0.51,2.69,0.9,4.26,1.1c5.08,0.63,9.47-0.92,9.78-3.46
	c0.31-2.54-3.55-5.11-8.64-5.74c-1.97-0.25-3.82-0.15-5.4,0.18c-0.47-4.32-1.82-8.73-3.85-13.02c0.8-0.3,1.62-0.63,2.45-1.03
	c5.43-2.67,8.77-6.62,7.49-8.82C231.04,443.03,225.59,443.4,220.17,446.07z"/>
<path class="st3" d="M484.05,112.86c-103.98,7.76-157.89-18.1-187.5-50c-32.44-34.96-30.85-71.95-62.5-87.5
	c-43-21.13-106.84,17.24-162.5,62.5"/>
<path class="st2" d="M20.46,93.06c7.9,0.36,13.98-6.75,13.98-6.75s1.41-8.41-5.58-16.65c-6.99-8.24-15.52-8.21-15.52-8.21
	s-7.9,4.78-8.9,12.55c-3.54-1.33-6.82-1.09-7.67,0.69c-0.96,2.01,1.5,5.19,5.51,7.12c1.49,0.72,2.97,1.14,4.31,1.32
	c0.65,1.11,1.4,2.24,2.39,3.41c0.93,1.09,1.86,1.97,2.78,2.76c-0.04,1.33,0.14,2.83,0.6,4.38c1.25,4.27,4,7.22,6.13,6.59
	C20.33,99.74,21.11,96.67,20.46,93.06z M26.11,34.66c0.41,0.76,0.85,1.43,1.29,2.08c-0.17,0.14-0.35,0.24-0.52,0.39
	c-2.61,2.22-4.79,4.7-6.65,7.3c-0.97-1.37-2.65-2.75-4.78-3.77c-4.01-1.92-8.04-1.86-9,0.14c-0.97,2.01,1.5,5.19,5.51,7.12
	c1.87,0.9,3.74,1.34,5.3,1.38c-0.91,1.81-1.69,3.64-2.25,5.49c3.94,0.69,10.63,2.65,16.53,8.29l24.99-21.22c0,0,2.5-2.09,4.6,0.38
	c2.09,2.47-0.38,4.6-0.38,4.6L35.79,68.04c4.61,6.75,5.46,13.67,5.5,17.66c1.84-0.24,3.7-0.68,5.54-1.24c-0.15,1.5,0,3.29,0.55,5.15
	c1.25,4.27,4,7.22,6.13,6.59c2.13-0.62,2.85-4.59,1.6-8.86c-0.62-2.12-1.61-3.92-2.72-5.11c2.87-1.41,5.66-3.14,8.26-5.35
	c0.17-0.14,0.31-0.31,0.48-0.46c0.5,0.47,1.04,0.95,1.62,1.4c4.26,3.33,8.97,4.65,10.5,2.96c1.54-1.7-0.69-5.77-4.96-9.1
	c-0.55-0.44-1.13-0.84-1.7-1.2c2.57-3.4,4.54-7.04,5.74-10.76c1.26,0.53,2.78,0.92,4.44,1.04c4.58,0.37,8.44-1.18,8.63-3.46
	c0.19-2.29-3.37-4.44-7.94-4.82c-1.34-0.11-2.61-0.04-3.75,0.15c0.44-6.19-1.17-12.11-5.1-16.73c-3.98-4.69-9.67-7.26-15.95-7.78
	c0.41-1.14,0.71-2.44,0.83-3.86c0.38-4.57-1.18-8.44-3.46-8.63c-2.29-0.19-4.44,3.37-4.81,7.95c-0.15,1.77,0,3.43,0.36,4.83
	c-3.85,0.58-7.75,1.95-11.51,3.93c-0.3-0.71-0.63-1.43-1.02-2.15c-2.59-4.76-6.25-7.61-8.18-6.37
	C22.97,25.05,23.51,29.91,26.11,34.66z"/>
</svg>
