<?xml version="1.0" encoding="utf-8"?>
<!-- Generator: Adobe Illustrator 24.0.1, SVG Export Plug-In . SVG Version: 6.00 Build 0)  -->
<svg version="1.1" id="Layer_1" xmlns="http://www.w3.org/2000/svg" xmlns:xlink="http://www.w3.org/1999/xlink" x="0px" y="0px"
	 viewBox="0 0 264 280" style="enable-background:new 0 0 264 280;" xml:space="preserve">
<style type="text/css">
	.st0{fill-rule:evenodd;clip-rule:evenodd;fill:#40E4BF;}
	.st1{filter:url(#Adobe_OpacityMaskFilter);}
	.st2{fill-rule:evenodd;clip-rule:evenodd;fill:#FFFFFF;}
	.st3{mask:url(#mask-2_1_);}
	.st4{filter:url(#Adobe_OpacityMaskFilter_1_);}
	.st5{mask:url(#mask-4_1_);}
	.st6{fill-rule:evenodd;clip-rule:evenodd;fill:#D0C6AC;}
	.st7{filter:url(#Adobe_OpacityMaskFilter_2_);}
	.st8{mask:url(#mask-6_1_);}
	.st9{fill-rule:evenodd;clip-rule:evenodd;fill:#FFDBB4;}
	.st10{filter:url(#Adobe_OpacityMaskFilter_3_);}
	.st11{mask:url(#mask-6_2_);fill-rule:evenodd;clip-rule:evenodd;fill-opacity:0.1;}
	.st12{fill-rule:evenodd;clip-rule:evenodd;fill:#E6E6E6;}
	.st13{filter:url(#Adobe_OpacityMaskFilter_4_);}
	.st14{mask:url(#react-mask-583_1_);}
	.st15{fill-rule:evenodd;clip-rule:evenodd;fill:#BBFFFA;}
	.st16{fill-rule:evenodd;clip-rule:evenodd;fill-opacity:0.7;}
	.st17{filter:url(#Adobe_OpacityMaskFilter_5_);}
	.st18{mask:url(#react-mask-509_1_);fill-rule:evenodd;clip-rule:evenodd;fill:#FFFFFF;}
	.st19{filter:url(#Adobe_OpacityMaskFilter_6_);}
	.st20{mask:url(#react-mask-509_2_);}
	.st21{fill-rule:evenodd;clip-rule:evenodd;fill:#FF4F6D;}
	.st22{fill-rule:evenodd;clip-rule:evenodd;fill-opacity:0.16;}
	.st23{fill-rule:evenodd;clip-rule:evenodd;fill-opacity:0.6;}
	.st24{filter:url(#Adobe_OpacityMaskFilter_7_);}
	.st25{mask:url(#react-mask-576_1_);}
	.st26{fill-rule:evenodd;clip-rule:evenodd;fill:#944F23;}
	.st27{filter:url(#Adobe_OpacityMaskFilter_8_);}
	.st28{mask:url(#react-mask-577_1_);}
	.st29{fill-rule:evenodd;clip-rule:evenodd;fill:#D6B370;}
	.st30{fill-rule:evenodd;clip-rule:evenodd;fill-opacity:0.24;}
</style>
<desc>Created with getavataaars.com</desc>
<g id="Circle" transform="translate(12.000000, 40.000000)">
	<g id="Circle-Background">
		<circle id="path-1_1_" class="st0" cx="120" cy="120" r="120"/>
	</g>
	<defs>
		<filter id="Adobe_OpacityMaskFilter" filterUnits="userSpaceOnUse" x="0" y="0" width="240" height="240">
			<feColorMatrix  type="matrix" values="1 0 0 0 0  0 1 0 0 0  0 0 1 0 0  0 0 0 1 0"/>
		</filter>
	</defs>
	<mask maskUnits="userSpaceOnUse" x="0" y="0" width="240" height="240" id="mask-2_1_">
		<g class="st1">
			<circle id="path-1_2_" class="st2" cx="120" cy="120" r="120"/>
		</g>
	</mask>
	<g id="Color_x2F_Palette_x2F_Blue-01" class="st3">
		<rect id="_xD83D__xDD8D_Color" class="st0" width="240" height="240"/>
	</g>
</g>
<g id="Mask">
</g>
<defs>
	<filter id="Adobe_OpacityMaskFilter_1_" filterUnits="userSpaceOnUse" x="0" y="18" width="322" height="280">
		<feColorMatrix  type="matrix" values="1 0 0 0 0  0 1 0 0 0  0 0 1 0 0  0 0 0 1 0"/>
	</filter>
</defs>
<mask maskUnits="userSpaceOnUse" x="0" y="18" width="322" height="280" id="mask-4_1_">
	<g class="st4">
		<path id="path-3_1_" class="st2" d="M12,160c0,66.3,53.7,120,120,120s120-53.7,120-120h12V0H0v160H12z"/>
	</g>
</mask>
<g id="Avataaar" class="st5">
	<g id="Body" transform="translate(32.000000, 36.000000)">
		<g>
			<path id="path-5_1_" class="st6" d="M124,144.6V163h4l0,0c39.8,0,72,32.2,72,72v9H0v-9c0-39.8,32.2-72,72-72l0,0h4v-18.4
				c-17.2-8.2-29.6-24.9-31.7-44.7C38.5,99.1,34,94.1,34,88V74c0-5.9,4.3-10.9,10-11.8V56l0,0c0-30.9,25.1-56,56-56l0,0l0,0
				c30.9,0,56,25.1,56,56v6.2c5.7,1,10,5.9,10,11.8v14c0,6.1-4.5,11.1-10.3,11.9C153.6,119.7,141.2,136.4,124,144.6z"/>
		</g>
		<defs>
			<filter id="Adobe_OpacityMaskFilter_2_" filterUnits="userSpaceOnUse" x="-32" y="0" width="264" height="244">
				<feColorMatrix  type="matrix" values="1 0 0 0 0  0 1 0 0 0  0 0 1 0 0  0 0 0 1 0"/>
			</filter>
		</defs>
		<mask maskUnits="userSpaceOnUse" x="-32" y="0" width="264" height="244" id="mask-6_1_">
			<g class="st7">
				<path id="path-5_2_" class="st2" d="M124,144.6V163h4l0,0c39.8,0,72,32.2,72,72v9H0v-9c0-39.8,32.2-72,72-72l0,0h4v-18.4
					c-17.2-8.2-29.6-24.9-31.7-44.7C38.5,99.1,34,94.1,34,88V74c0-5.9,4.3-10.9,10-11.8V56l0,0c0-30.9,25.1-56,56-56l0,0l0,0
					c30.9,0,56,25.1,56,56v6.2c5.7,1,10,5.9,10,11.8v14c0,6.1-4.5,11.1-10.3,11.9C153.6,119.7,141.2,136.4,124,144.6z"/>
			</g>
		</mask>
		<g id="Skin_x2F__xD83D__xDC76__xD83C__xDFFD_-03-Brown" class="st8">
			<g id="Color" transform="translate(-32.000000, 0.000000)">
				<rect class="st9" width="264" height="244"/>
			</g>
		</g>
		<defs>
			<filter id="Adobe_OpacityMaskFilter_3_" filterUnits="userSpaceOnUse" x="44" y="79" width="112" height="79">
				<feColorMatrix  type="matrix" values="1 0 0 0 0  0 1 0 0 0  0 0 1 0 0  0 0 0 1 0"/>
			</filter>
		</defs>
		<mask maskUnits="userSpaceOnUse" x="44" y="79" width="112" height="79" id="mask-6_2_">
			<g class="st10">
				<path id="path-5_3_" class="st2" d="M124,144.6V163h4l0,0c39.8,0,72,32.2,72,72v9H0v-9c0-39.8,32.2-72,72-72l0,0h4v-18.4
					c-17.2-8.2-29.6-24.9-31.7-44.7C38.5,99.1,34,94.1,34,88V74c0-5.9,4.3-10.9,10-11.8V56l0,0c0-30.9,25.1-56,56-56l0,0l0,0
					c30.9,0,56,25.1,56,56v6.2c5.7,1,10,5.9,10,11.8v14c0,6.1-4.5,11.1-10.3,11.9C153.6,119.7,141.2,136.4,124,144.6z"/>
			</g>
		</mask>
		<path id="Neck-Shadow" class="st11" d="M156,79v23c0,30.9-25.1,56-56,56s-56-25.1-56-56V79v15c0,30.9,25.1,56,56,56s56-25.1,56-56
			V79z"/>
	</g>
	<g id="Clothing_x2F_Shirt-V-Neck" transform="translate(0.000000, 170.000000)">
		<g id="Clothes">
			<path id="react-path-582_1_" class="st12" d="M171.3,29.9c34.4,5.4,60.7,35.2,60.7,71.1v8.9H32v-8.9c0-35.9,26.3-65.7,60.7-71.1
				c0.9,5.1,3.4,9.9,7.6,13.6l0,0l29.1,26.2c1.5,1.4,3.8,1.4,5.4,0l0,0l29.1-26.2c0.4-0.4,0.8-0.8,1.2-1.2
				C168.4,38.8,170.5,34.5,171.3,29.9z"/>
		</g>
		<defs>
			<filter id="Adobe_OpacityMaskFilter_4_" filterUnits="userSpaceOnUse" x="0" y="0" width="264" height="110">
				<feColorMatrix  type="matrix" values="1 0 0 0 0  0 1 0 0 0  0 0 1 0 0  0 0 0 1 0"/>
			</filter>
		</defs>
		<mask maskUnits="userSpaceOnUse" x="0" y="0" width="264" height="110" id="react-mask-583_1_">
			<g class="st13">
				<path id="react-path-582_2_" class="st2" d="M171.3,29.9c34.4,5.4,60.7,35.2,60.7,71.1v8.9H32v-8.9c0-35.9,26.3-65.7,60.7-71.1
					c0.9,5.1,3.4,9.9,7.6,13.6l0,0l29.1,26.2c1.5,1.4,3.8,1.4,5.4,0l0,0l29.1-26.2c0.4-0.4,0.8-0.8,1.2-1.2
					C168.4,38.8,170.5,34.5,171.3,29.9z"/>
			</g>
		</mask>
		<g id="Color_x2F_Palette_x2F_Gray-01" class="st14">
			<rect id="_xD83D__xDD8D_Color_1_" class="st15" width="264" height="110"/>
		</g>
	</g>
	<g id="Face" transform="translate(76.000000, 82.000000)">
		<g id="Mouth_x2F_Smile" transform="translate(2.000000, 52.000000)">
			<g id="Mouth">
				<path id="react-path-508_1_" class="st16" d="M35.1,15.1C36.2,24.6,44.2,32,54,32c9.8,0,17.9-7.4,18.9-17c0.1-0.8-0.8-2-1.8-2
					c-14.9,0-26.3,0-34,0C36,13,35,14.2,35.1,15.1z"/>
			</g>
			<defs>
				<filter id="Adobe_OpacityMaskFilter_5_" filterUnits="userSpaceOnUse" x="39" y="2" width="31" height="16">
					<feColorMatrix  type="matrix" values="1 0 0 0 0  0 1 0 0 0  0 0 1 0 0  0 0 0 1 0"/>
				</filter>
			</defs>
			<mask maskUnits="userSpaceOnUse" x="39" y="2" width="31" height="16" id="react-mask-509_1_">
				<g class="st17">
					<path id="react-path-508_2_" class="st2" d="M35.1,15.1C36.2,24.6,44.2,32,54,32c9.8,0,17.9-7.4,18.9-17c0.1-0.8-0.8-2-1.8-2
						c-14.9,0-26.3,0-34,0C36,13,35,14.2,35.1,15.1z"/>
				</g>
			</mask>
			<path id="Teeth" class="st18" d="M44,2h21c2.8,0,5,2.2,5,5v6c0,2.8-2.2,5-5,5H44c-2.8,0-5-2.2-5-5V7C39,4.2,41.2,2,44,2z"/>
			<defs>
				<filter id="Adobe_OpacityMaskFilter_6_" filterUnits="userSpaceOnUse" x="38" y="24" width="32" height="22">
					<feColorMatrix  type="matrix" values="1 0 0 0 0  0 1 0 0 0  0 0 1 0 0  0 0 0 1 0"/>
				</filter>
			</defs>
			<mask maskUnits="userSpaceOnUse" x="38" y="24" width="32" height="22" id="react-mask-509_2_">
				<g class="st19">
					<path id="react-path-508_3_" class="st2" d="M35.1,15.1C36.2,24.6,44.2,32,54,32c9.8,0,17.9-7.4,18.9-17c0.1-0.8-0.8-2-1.8-2
						c-14.9,0-26.3,0-34,0C36,13,35,14.2,35.1,15.1z"/>
				</g>
			</mask>
			<g id="Tongue" class="st20">
				<g transform="translate(38.000000, 24.000000)">
					<circle class="st21" cx="11" cy="11" r="11"/>
					<circle class="st21" cx="21" cy="11" r="11"/>
				</g>
			</g>
		</g>
		<g id="Nose_x2F_Default" transform="translate(28.000000, 40.000000)">
			<path id="Nose" class="st22" d="M16,8c0,4.4,5.4,8,12,8l0,0c6.6,0,12-3.6,12-8"/>
		</g>
		<g id="Eyes_x2F_Wink-Wacky-_xD83D__xDE1C_" transform="translate(0.000000, 8.000000)">
			<circle id="Cornea_x3F_-I-don_x27_t-know" class="st2" cx="82" cy="22" r="12"/>
			<circle id="Eye" class="st16" cx="82" cy="22" r="6"/>
			<path id="Winky-Doodle" class="st23" d="M16.2,25.4C18,21.6,22.2,19,27,19c4.8,0,9,2.6,10.8,6.4c0.6,1.1-0.2,2-1,1.4
				c-2.5-2.1-5.9-3.4-9.8-3.4c-3.7,0-7.1,1.2-9.6,3.2C16.5,27.3,15.6,26.6,16.2,25.4z"/>
		</g>
		<g id="Eyebrow_x2F_Natural_x2F_Up-Down-Natural">
			<path id="Eye-Browse-Reddit" class="st23" d="M22.8,1.6l0.9-0.4c5.2-2.1,13.2-1.2,18,1.1c0.6,0.3,0.2,1.2-0.4,1.1
				c-14.9-1.2-25,8.1-28.4,14.4c-0.1,0.2-0.4,0.2-0.5,0C10.2,12.6,16.9,3.9,22.8,1.6z"/>
			<path id="Eyebrow" class="st23" d="M87,12.1c5.8,0.8,14.7,5.8,14,11.6c0,0.2-0.3,0.2-0.4,0.1c-2.5-3.2-21.7-7.9-28.7-6.9
				c-0.6,0.1-1.1-0.6-0.6-1C75,12.4,81.8,11.4,87,12.1z"/>
		</g>
	</g>
	<g id="Top">
		<g id="Mask_1_">
		</g>
		<defs>
			<filter id="Adobe_OpacityMaskFilter_7_" filterUnits="userSpaceOnUse" x="58" y="18" width="264" height="280">
				<feColorMatrix  type="matrix" values="1 0 0 0 0  0 1 0 0 0  0 0 1 0 0  0 0 0 1 0"/>
			</filter>
		</defs>
		<mask maskUnits="userSpaceOnUse" x="58" y="18" width="264" height="280" id="react-mask-576_1_">
			<g class="st24">
				<rect id="react-path-578_1_" class="st2" width="264" height="280"/>
			</g>
		</mask>
		<g id="Top_x2F_Long-Hair_x2F_Straight" class="st25">
			<g transform="translate(-1.000000, 0.000000)">
				<g id="Hair" transform="translate(59.000000, 18.000000)">
					<g id="Mask-Hair">
						<path id="react-path-579_1_" class="st26" d="M133.5,81.3c3.9,2,6.5,6,6.5,10.7v13c0,6-4.4,11-10.2,11.9
							c-1.7,20.2-14.3,37.4-31.8,45.7l0,0V181h4c17.5,0,33.5,6.2,46,16.6V74c0-20.4-8.3-38.9-21.7-52.3S94.4,0,74,0
							C33.1,0,0,33.1,0,74v183.7c13.6-1.9,24-13.6,24-27.7v-45.6c6.9-2.2,14.3-3.4,22-3.4h4v-18.4c-11.2-5.3-20.4-14.3-26-25.4v-62
							c9.1-3,18.8-7.2,28.3-12.8c15.4-8.9,28.1-19.6,36.7-30.1c1.8,5.2,4.1,10.4,7,15.5c8.8,15.2,21.1,26.3,33.9,32v0.2
							c0.4,0.1,0.8,0.2,1.2,0.3C132,80.7,132.7,81.1,133.5,81.3z"/>
					</g>
					<defs>
						<filter id="Adobe_OpacityMaskFilter_8_" filterUnits="userSpaceOnUse" x="0" y="0" width="264" height="280">
							<feColorMatrix  type="matrix" values="1 0 0 0 0  0 1 0 0 0  0 0 1 0 0  0 0 0 1 0"/>
						</filter>
					</defs>
					<mask maskUnits="userSpaceOnUse" x="0" y="0" width="264" height="280" id="react-mask-577_1_">
						<g class="st27">
							<path id="react-path-579_2_" class="st2" d="M133.5,81.3c3.9,2,6.5,6,6.5,10.7v13c0,6-4.4,11-10.2,11.9
								c-1.7,20.2-14.3,37.4-31.8,45.7l0,0V181h4c17.5,0,33.5,6.2,46,16.6V74c0-20.4-8.3-38.9-21.7-52.3S94.4,0,74,0
								C33.1,0,0,33.1,0,74v183.7c13.6-1.9,24-13.6,24-27.7v-45.6c6.9-2.2,14.3-3.4,22-3.4h4v-18.4c-11.2-5.3-20.4-14.3-26-25.4v-62
								c9.1-3,18.8-7.2,28.3-12.8c15.4-8.9,28.1-19.6,36.7-30.1c1.8,5.2,4.1,10.4,7,15.5c8.8,15.2,21.1,26.3,33.9,32v0.2
								c0.4,0.1,0.8,0.2,1.2,0.3C132,80.7,132.7,81.1,133.5,81.3z"/>
						</g>
					</mask>
					<g id="Skin_x2F__xD83D__xDC76__xD83C__xDFFD_-03-Brown_1_" class="st28">
						<g id="Color_1_" transform="translate(0.000000, 0.000000) ">
							<rect class="st29" width="264" height="280"/>
						</g>
					</g>
				</g>
				<path id="Shadow" class="st30" d="M192.5,99.3c4.9,1.8,9.8,2.7,14.5,2.8l0,0V92c0-20.4-8.3-38.9-21.7-52.3
					C198.7,53.1,207,71.6,207,92v123.6c-12.5-10.4-28.5-16.6-46-16.6h-4v-18.4l0,0c17.5-8.3,30-25.5,31.8-45.7
					C194.6,134,199,129,199,123v-13C199,105.4,196.4,101.3,192.5,99.3z M190.2,98.4c-0.4-0.1-0.8-0.2-1.2-0.3v-0.2
					C189.4,98.1,189.8,98.3,190.2,98.4z M83,155.2c5.6,11.1,14.8,20,26,25.4V199h-4c-7.7,0-15.1,1.2-22,3.4V155.2z"/>
			</g>
		</g>
	</g>
</g>
</svg>
