<?xml version="1.0" encoding="UTF-8"?><svg id="a" xmlns="http://www.w3.org/2000/svg" viewBox="0 0 249.5746 249.5746"><defs><style>.d{fill:#fff;fill-rule:evenodd;}</style></defs><g id="b"><path id="c" class="d" d="m231.4982,0H18.8132C8.64,0,0,8.0458,0,17.9575v213.6477c0,9.9235,5.6689,17.9694,15.842,17.9694h212.685c10.185,0,21.0475-8.0458,21.0475-17.9694V17.9575c0-9.9117-7.8913-17.9575-18.0764-17.9575ZM95.076,95.076h33.5975v17.1256h.3684c5.1222-9.2343,20.2511-18.6111,38.9574-18.6111,35.903,0,45.9217,19.0627,45.9217,54.3716v65.959h-35.6535v-59.4582c0-15.8064-6.3107-29.6756-21.0713-29.6756-17.9218,0-26.4668,12.1341-26.4668,32.0525v57.0813h-35.6535v-118.845Zm-59.4225,118.845h35.6535v-118.845h-35.6535v118.845ZM75.7637,53.4803c.0033,12.3035-9.9681,22.2802-22.2716,22.2835-12.3035.0033-22.2802-9.968-22.2834-22.2716-.0033-12.3035,9.9681-22.2802,22.2716-22.2834,12.3035-.0033,22.2802,9.968,22.2834,22.2716Z"/></g></svg>